M48
;Layer_Color=9474304
;FILE_FORMAT=4:4
METRIC,TZ
T6F00S00C1.0000
%
G90
G05
T06
G00X869000Y-173750
M15
G01X871183Y-173248
G01X872927Y-171844
G01X874000Y-168750
G01X874000Y-79321
G01X963286Y9964
G01X964474Y11862
G01X964750Y13500
G01X964750Y413500
G01X964248Y415683
G01X963285Y417036
G01X844035Y536285
G01X842137Y537474
G01X840500Y537750
G01X129825Y537750
G01X127643Y537249
G01X126307Y536303
G01X68732Y479281
G01X67534Y477389
G01X67250Y475728
G01X67250Y401321
G01X-3535Y330536
G01X-4724Y328638
G01X-5000Y327000
G01X-5000Y0
G01X-4498Y-2183
G01X-3535Y-3536
G01X165214Y-172286
G01X167112Y-173474
G01X168750Y-173750
G01X869000Y-173750
M16
M17
M30
