M48
;Layer_Color=9474304
;FILE_FORMAT=4:4
METRIC,TZ
;TYPE=PLATED
T1F00S00C0.2000
T2F00S00C0.6000
T3F00S00C1.0000
T4F00S00C1.0200
T5F00S00C1.0400
;TYPE=NON_PLATED
%
T01
X556250Y-48750
X567250
X813000Y388750
X824000
Y399750
X813000
T02
X164750Y-122750
X356250Y-88750
X366750Y-72500
X350000Y-35500
X441250Y-59250
X470250Y-60000
X495500Y-59500
X529000Y-57750
X565500Y-89750
X627750Y-90500
X673500Y-89750
X723250Y-57000
X721250Y-131250
X769000Y-102500
X837500Y-48500
X911500Y151750
X927000Y153250
X907750Y200750
X889500Y279500
X873250Y279000
X846000Y306500
X847250Y323500
X776750Y330000
X776000Y345250
X641250Y348750
X670000Y251750
X676750Y237250
X677750Y214500
Y198750
X667500Y171500
X669750Y158750
X660750Y149000
X643750Y154500
X672500Y113500
X687000Y103000
X702000
X716250Y101750
X718250Y116500
X714750Y133750
X726250Y143750
X743039Y162767
X758750Y162500
X789041Y163267
X786040Y146766
X822250Y145750
X822500Y164000
X839250Y127250
X722250Y87250
X733500Y42250
X741750Y1750
X757750Y2250
X776250Y2000
X800000Y2500
X856250Y-18500
X888000Y-25750
X717000Y3500
X643750Y-12000
X608500Y-15000
X610000Y51500
X590250Y43750
X572000Y55000
X555750Y55500
X540000Y56000
X525500
X510250
X516000Y126500
X531500Y127750
X572750Y146500
X563530Y156266
X637250Y55500
X651000Y55000
X495250Y56000
X492250Y21250
X443500Y40500
X385000Y53000
X385967Y157000
X403250Y162750
X400250Y185250
X447750Y177000
X329000Y161000
X302750Y120000
X268250Y175750
X283000Y198000
X285250Y216000
X289000Y238000
X294750Y263500
X304250Y299500
X305000Y333250
X299250Y353000
X285500Y346000
X317250Y356250
X329750Y344500
X389750Y350250
X365750Y279000
X190500Y264250
X164750Y205000
X167000Y159000
X168500Y145500
X147000Y153500
X125000Y167750
X129000Y234000
X118750Y249250
X104250Y240500
X228000Y202000
X159250Y95000
X160750Y70750
X155750Y46250
X151000Y-8500
X167000
X183000
X158750Y-30500
X129000Y-8500
X103750
X130500Y93250
X135500Y107250
X247000Y33250
X91900Y90500
X11750Y84750
X24500Y64250
X24750Y51250
X24250Y37000
X33750Y237500
X43500Y249000
X61000Y249750
X76750Y249250
X92500Y249000
X92250Y211250
X24000Y249500
X51250Y349750
X68000Y349500
X98000Y351000
X92000Y365750
X108750Y386750
Y406000
X109250Y431250
X110500Y454250
X233500Y448250
Y434000
Y420250
Y462500
X238000Y380500
X290500Y417250
X296000Y431500
X324000Y498000
X419000Y391500
X463500Y431750
X497750Y457000
X157750Y368250
X567750Y379500
X565750Y414500
X579500Y419750
X590500Y409000
X605000Y416750
X621500Y414250
X618000Y383750
X648000Y376125
X639500Y363000
X690750Y424500
X705750Y424750
X778250Y416500
X772790Y392278
X783000Y370250
X861750Y367250
X857000Y381250
X852000Y412500
X853500Y463750
X810500Y474250
X788250Y486000
X770500Y463250
X742250Y493750
X677500Y508500
X655000Y504500
X542500Y461250
X532000Y469500
X530250Y447750
X536500Y434250
X531250Y417000
X554500Y427250
T03
X409850Y-102500
X435250
X478300Y-96000
X503700
X572450Y112250
X597850
X623250
X648650
X673100Y80750
X679050Y46250
X704450
X755800Y-21000
X781200
X806600
X832000
T04
X543300Y-114750
X568700
X594100
X619500
X644900
X670300
X659400Y10750
X634000
X608600
X583200
X557800
X684800
X703250Y171950
Y197350
Y222750
Y248150
Y273550
Y298950
Y324350
Y349750
X756700Y245000
Y219600
X782100
X807500
X832900
X858300
X883700
Y245000
X858300
X832900
X807500
X782100
Y191500
X807500
X832900
X858300
X883700
X756700
X135300Y274100
Y299500
X109900
Y274100
X84500
Y299500
X59100
X33700
Y274100
X59100
T05
X508400Y77250
X533800
X533900Y104500
X508500
X571500Y80750
X596900
X622300
X647700
X698500
X752000Y313450
Y338850
X889750Y330400
Y355800
Y305000
X483100Y104500
X457700
X432300
X406900
X406800Y77250
X432200
X457600
X483000
X189750Y85650
Y111050
Y136450
Y161850
Y187250
X261750Y199450
Y224850
Y250250
Y275650
Y301050
Y326450
Y351850
X135700Y327750
X110300
X102950Y14000
X128350
X153750
X179150
X204550
X189750Y60250
X77550Y14000
X52150
X26750
X34100Y327750
X59500
X84900
X136500Y379700
Y405100
Y430500
Y455900
Y481300
X166350Y475200
Y449800
Y424400
Y399000
X191750
Y424400
Y449800
Y475200
X261750Y428050
Y402650
Y377250
X351400Y493750
X376800
X402200
X427600
X453000
X478400
X581850Y477625
X607250
X632650
X658050
X683450
X708850
Y447250
X683450
X658050
X632650
X607250
X581850
X752000Y440450
Y415050
Y389650
Y364250
X889750Y381200
Y406600
Y432000
M30
