G04 Layer_Color=65535*
%FSLAX44Y44*%
%MOMM*%
G71*
G01*
G75*
%ADD65C,0.2500*%
%ADD66C,0.2000*%
%ADD80C,0.1000*%
%ADD81C,0.6000*%
%ADD82C,0.4000*%
%ADD83C,0.2540*%
%ADD84C,0.1270*%
%ADD85C,0.0500*%
G36*
X-34750Y99250D02*
X-44750D01*
Y109250D01*
X-34750Y99250D01*
D02*
G37*
D65*
X460850Y-96000D02*
G03*
X460850Y-96000I-1250J0D01*
G01*
X726250Y-92500D02*
G03*
X726250Y-92500I-1250J0D01*
G01*
X889750Y55250D02*
G03*
X889750Y55250I-1250J0D01*
G01*
X461375Y7750D02*
G03*
X461375Y7750I-1250J0D01*
G01*
X381000Y-16500D02*
G03*
X381000Y-16500I-1250J0D01*
G01*
X455200Y-102500D02*
G03*
X455200Y-102500I-1250J0D01*
G01*
X260750Y166250D02*
G03*
X260750Y166250I-1250J0D01*
G01*
X791000Y415000D02*
G03*
X791000Y415000I-1250J0D01*
G01*
X659000Y412500D02*
G03*
X659000Y412500I-1250J0D01*
G01*
X353200Y-161350D02*
G03*
X353200Y-161350I-1250J0D01*
G01*
X448750Y334250D02*
G03*
X448750Y334250I-1250J0D01*
G01*
X797000Y-103750D02*
G03*
X797000Y-103750I-1250J0D01*
G01*
X352000Y256750D02*
G03*
X352000Y256750I-1250J0D01*
G01*
X232000Y276000D02*
G03*
X232000Y276000I-1250J0D01*
G01*
X79750Y27500D02*
G03*
X79750Y27500I-1250J0D01*
G01*
X383250Y341250D02*
G03*
X383250Y341250I-1250J0D01*
G01*
X303500Y430500D02*
G03*
X303500Y430500I-1250J0D01*
G01*
X326250Y131250D02*
G03*
X326250Y131250I-1250J0D01*
G01*
X873750Y33000D02*
G03*
X873750Y33000I-1250J0D01*
G01*
X741250Y82250D02*
G03*
X741250Y82250I-1250J0D01*
G01*
X724900Y46250D02*
G03*
X724900Y46250I-1250J0D01*
G01*
D66*
X465600Y-127750D02*
X516400D01*
X465600Y-70600D02*
X516400D01*
X465600Y-127750D02*
Y-109000D01*
Y-83000D02*
Y-70600D01*
X516400Y-83000D02*
Y-70600D01*
Y-127750D02*
Y-109000D01*
X538250Y-31750D02*
Y-30750D01*
X524750Y-31750D02*
Y-30750D01*
X577250Y-65750D02*
X578750D01*
X544750D02*
X546250D01*
X544750Y-31750D02*
X546250D01*
X578750Y-37000D02*
Y-31750D01*
X577250D02*
X578750D01*
X544750Y-37000D02*
Y-31750D01*
Y-65750D02*
Y-60500D01*
X578750Y-65750D02*
Y-60500D01*
X600000Y-53000D02*
Y-52000D01*
X586500Y-53000D02*
Y-52000D01*
X586600Y-73600D02*
X589400D01*
X586600Y-86400D02*
X589400D01*
X739500Y-125750D02*
Y-95750D01*
X734500Y-125750D02*
Y-95750D01*
Y-125750D02*
X739500D01*
X734500Y-95750D02*
X739500D01*
X694750Y-116500D02*
Y-115500D01*
X707250Y-116500D02*
Y-115500D01*
X694000Y-149250D02*
X695000D01*
X694000Y-135750D02*
X695000D01*
X739750Y-86750D02*
X740750D01*
X739750Y-73250D02*
X740750D01*
X705000Y-86500D02*
X706000D01*
X705000Y-74000D02*
X706000D01*
X163750Y-74250D02*
X164750D01*
X163750Y-86250D02*
X164750D01*
X163750Y-57000D02*
X164750D01*
X163750Y-69000D02*
X164750D01*
X163750Y-39750D02*
X164750D01*
X163750Y-51750D02*
X164750D01*
X898300Y206900D02*
Y257700D01*
X742100Y206900D02*
X898300D01*
X742100D02*
Y257700D01*
X898300D01*
X898301Y179054D02*
Y203946D01*
X742101Y179054D02*
Y203946D01*
X898301D01*
X742101Y179054D02*
X898301D01*
X948000Y65250D02*
Y69250D01*
X898000Y65250D02*
Y69250D01*
X470000Y28250D02*
X471000D01*
X470000Y17250D02*
X471000D01*
X493125Y-46000D02*
X499125D01*
X493125Y-34500D02*
X499125D01*
X464125Y-34501D02*
X470125D01*
X464125Y-46000D02*
X470125D01*
X473625Y-26250D02*
Y4750D01*
X470625Y-26250D02*
Y4750D01*
Y-26250D02*
X473625D01*
X470625Y4750D02*
X473625D01*
X507875Y-10250D02*
Y-9250D01*
X496875Y-10250D02*
Y-9250D01*
X446250Y-3000D02*
Y27000D01*
X379250Y-3000D02*
Y27000D01*
X446250D01*
X379250Y-3000D02*
X446250D01*
X397150Y-70750D02*
X447950D01*
X397150Y-127900D02*
X447950D01*
Y-89500D02*
Y-70750D01*
Y-127900D02*
Y-115500D01*
X397150Y-127900D02*
Y-115500D01*
Y-89500D02*
Y-70750D01*
X528701Y-127196D02*
X684901D01*
X528701Y-102304D02*
X684901D01*
X528701Y-127196D02*
Y-102304D01*
X684901Y-127196D02*
Y-102304D01*
X542250Y-73500D02*
X543250D01*
X542250Y-86000D02*
X543250D01*
X559500Y-10750D02*
X560500D01*
X559500Y-23250D02*
X560500D01*
X738400Y-139350D02*
X741200D01*
X738400Y-152150D02*
X741200D01*
X634350Y-37650D02*
X637150D01*
X634350Y-24850D02*
X637150D01*
X634000Y-63250D02*
Y-62250D01*
X621499Y-63250D02*
Y-62250D01*
X645750Y-70250D02*
X664750D01*
Y-48250D01*
X642750D02*
X664750D01*
X642750Y-67250D02*
Y-48250D01*
Y-67250D02*
X645750Y-70250D01*
X669745Y-63500D02*
Y-62500D01*
X682245Y-63500D02*
Y-62500D01*
X698015Y-41957D02*
Y-40957D01*
X711515Y-41957D02*
Y-40957D01*
X676495Y-28500D02*
X677495D01*
X676495Y-42000D02*
X677495D01*
X259250Y18750D02*
X260250D01*
X259250Y6750D02*
X260250D01*
X13150Y26050D02*
X218150D01*
Y1950D02*
Y26050D01*
X13150Y1950D02*
X218150D01*
X13150D02*
Y26050D01*
X267000Y85250D02*
Y141250D01*
X225000Y143250D02*
X249000D01*
X225000Y83250D02*
X249000D01*
X207000Y85250D02*
Y141250D01*
X877700Y289750D02*
X901800D01*
Y447250D01*
X877700D02*
X901800D01*
X877700Y289750D02*
Y447250D01*
X838000Y349750D02*
Y350750D01*
X851000Y349750D02*
Y350750D01*
X796250Y372000D02*
X803000D01*
X796250D02*
Y378750D01*
X834000Y372000D02*
X840750D01*
Y378750D01*
Y409750D02*
Y416500D01*
X834000D02*
X840750D01*
X796250D02*
X803000D01*
X796250Y409750D02*
Y416500D01*
X739950Y455700D02*
X764050D01*
X739950Y298200D02*
Y455700D01*
Y298200D02*
X764050D01*
Y455700D01*
X858000Y437750D02*
Y438750D01*
X845000Y437750D02*
Y438750D01*
X792500Y427250D02*
X793500D01*
X792500Y440750D02*
X793500D01*
X835500Y446000D02*
Y447000D01*
X822000Y446000D02*
Y447000D01*
X645500Y391500D02*
X646500D01*
X645500Y402500D02*
X646500D01*
X681960Y392000D02*
X694540D01*
X681960Y419000D02*
X694540D01*
X645500Y408250D02*
X646500D01*
X645500Y419250D02*
X646500D01*
X779250Y294000D02*
X780250D01*
X779250Y282000D02*
X780250D01*
X676750Y287750D02*
Y288750D01*
X664750Y287750D02*
Y288750D01*
X812500Y-64750D02*
X813500D01*
X812500Y-51250D02*
X813500D01*
X149251Y261400D02*
Y312200D01*
X19751Y261400D02*
Y312200D01*
Y261400D02*
X149251D01*
X19751Y312200D02*
X149251D01*
X18850Y315700D02*
Y339800D01*
Y315700D02*
X150950D01*
Y339800D01*
X18850D02*
X150950D01*
X741850Y-33700D02*
Y-8300D01*
Y-33700D02*
X845950D01*
Y-8300D01*
X741850D02*
X845950D01*
X821750Y0D02*
X822750D01*
X821750Y11000D02*
X822750D01*
X609500Y148250D02*
X610500D01*
X609500Y160750D02*
X610500D01*
X800000Y154000D02*
Y155000D01*
X811000Y154000D02*
Y155000D01*
X176750Y-124750D02*
Y-123750D01*
X187750Y-124750D02*
Y-123750D01*
X336250Y-55750D02*
Y-39750D01*
X206250D02*
X213550D01*
X206250Y-55750D02*
Y-39750D01*
X328950D02*
X336250D01*
Y-269750D02*
Y-171750D01*
X206250Y-269750D02*
X336250D01*
X206250D02*
Y-171750D01*
X407000Y215750D02*
Y216750D01*
X393500Y215750D02*
Y216750D01*
X491750Y431500D02*
Y432500D01*
X504750Y431500D02*
Y432500D01*
X460500Y204750D02*
X585500D01*
X460500Y329750D02*
X585500D01*
Y204750D02*
Y329750D01*
X460500Y204750D02*
Y329750D01*
X377500Y360500D02*
X378500D01*
X377500Y373500D02*
X378500D01*
X344000Y361750D02*
X345000D01*
X344000Y372750D02*
X345000D01*
X418250Y369500D02*
Y370500D01*
X430750Y369500D02*
Y370500D01*
X438500Y439250D02*
X439500D01*
X438500Y425750D02*
X439500D01*
X798250Y-90750D02*
X829250D01*
X798250Y-93750D02*
X829250D01*
Y-90750D01*
X798250Y-93750D02*
Y-90750D01*
X906250Y123500D02*
X907250D01*
X906250Y110000D02*
X907250D01*
X812000Y339750D02*
X813000D01*
X812000Y352750D02*
X813000D01*
X358250Y175750D02*
Y231750D01*
X316250Y233750D02*
X340250D01*
X316250Y173750D02*
X340250D01*
X298250Y175750D02*
Y231750D01*
X812000Y321750D02*
X813000D01*
X812000Y333750D02*
X813000D01*
X812000Y316000D02*
X813000D01*
X812000Y303000D02*
X813000D01*
X812000Y294000D02*
X813000D01*
X812000Y282000D02*
X813000D01*
X111000Y193750D02*
Y194750D01*
X124500Y193750D02*
Y194750D01*
X945750Y106500D02*
Y107500D01*
X932250Y106500D02*
Y107500D01*
X837250Y-104750D02*
Y-103750D01*
X848250Y-104750D02*
Y-103750D01*
X768000Y-181450D02*
X848500D01*
X768000D02*
Y-168250D01*
X848500Y-181450D02*
Y-168250D01*
X776750Y-92500D02*
Y-91500D01*
X789750Y-92500D02*
Y-91500D01*
X909250Y44500D02*
X910250D01*
X909250Y33000D02*
X910250D01*
X788500Y-58000D02*
Y-57000D01*
X777500Y-58000D02*
Y-57000D01*
X864500Y144250D02*
Y145250D01*
X877500Y144250D02*
Y145250D01*
X746750Y70750D02*
X747750D01*
X746750Y81750D02*
X747750D01*
X132000Y193750D02*
Y194750D01*
X145500Y193750D02*
Y194750D01*
X222250Y308500D02*
X224250D01*
Y306500D02*
Y308500D01*
X190250D02*
X192250D01*
X190250Y306500D02*
Y308500D01*
Y274500D02*
Y276500D01*
Y274500D02*
X192250D01*
X222250D02*
X224250D01*
Y276500D01*
X617500Y345500D02*
X618500D01*
X617500Y333000D02*
X618500D01*
X935250Y130250D02*
X936250D01*
X935250Y141250D02*
X936250D01*
X326750Y270000D02*
X327750D01*
X326750Y256500D02*
X327750D01*
X543201Y-1696D02*
X699401D01*
X543201Y23196D02*
X699401D01*
X543201Y-1696D02*
Y23196D01*
X699401Y-1696D02*
Y23196D01*
X898750Y129000D02*
X899750D01*
X898750Y142000D02*
X899750D01*
X795500Y447000D02*
X796500D01*
X795500Y460500D02*
X796500D01*
X746750Y65250D02*
X747750D01*
X746750Y54250D02*
X747750D01*
X846750Y-71750D02*
Y-70750D01*
X835750Y-71750D02*
Y-70750D01*
X66000Y39500D02*
X68000D01*
X66000D02*
Y77500D01*
X68000D01*
X144000Y39500D02*
X146000D01*
Y77500D01*
X144000D02*
X146000D01*
X89000Y39500D02*
X123000D01*
X89000Y77500D02*
X123000D01*
X392500Y329250D02*
X394500D01*
Y291250D02*
Y329250D01*
X392500Y291250D02*
X394500D01*
X314500Y329250D02*
X316500D01*
X314500Y291250D02*
Y329250D01*
Y291250D02*
X316500D01*
X337500Y329250D02*
X371500D01*
X337500Y291250D02*
X371500D01*
X855250Y10750D02*
X856250D01*
X855250Y-2750D02*
X856250D01*
X203500Y232500D02*
Y233500D01*
X190500Y232500D02*
Y233500D01*
X217000Y237250D02*
Y238250D01*
X230000Y237250D02*
Y238250D01*
X166250Y260000D02*
Y261000D01*
X179250Y260000D02*
Y261000D01*
X914750Y89750D02*
X915750D01*
X914750Y101250D02*
X915750D01*
X609500Y180250D02*
X610500D01*
X609500Y166750D02*
X610500D01*
X610250Y364500D02*
X611250D01*
X610250Y351000D02*
X611250D01*
X558500Y99550D02*
Y124950D01*
Y99550D02*
X662600D01*
Y124950D01*
X558500D02*
X662600D01*
X327250Y438000D02*
X383250D01*
X325250Y396000D02*
Y420000D01*
X385250Y396000D02*
Y420000D01*
X327250Y378000D02*
X383250D01*
X391550Y65200D02*
Y89300D01*
Y65200D02*
X549050D01*
Y89300D01*
X391550D02*
X549050D01*
X556250Y68700D02*
Y92800D01*
Y68700D02*
X713750D01*
Y92800D01*
X556250D02*
X713750D01*
X391650Y92450D02*
Y116550D01*
Y92450D02*
X549150D01*
Y116550D01*
X391650D02*
X549150D01*
X177700Y45000D02*
X201800D01*
Y202500D01*
X177700D02*
X201800D01*
X177700Y45000D02*
Y202500D01*
X313000Y11750D02*
X314000D01*
X313000Y25250D02*
X314000D01*
X332500Y50250D02*
Y106250D01*
X290500Y108250D02*
X314500D01*
X290500Y48250D02*
X314500D01*
X272500Y50250D02*
Y106250D01*
X457250Y154500D02*
X458250D01*
X457250Y168000D02*
X458250D01*
X225250Y348250D02*
X226250D01*
X225250Y336250D02*
X226250D01*
X225250Y365750D02*
X226250D01*
X225250Y353750D02*
X226250D01*
X179250Y322750D02*
Y323750D01*
X167250Y322750D02*
Y323750D01*
X860750Y38750D02*
Y95750D01*
X803750Y38750D02*
Y95750D01*
Y38750D02*
X860750D01*
X803750Y95750D02*
X860750D01*
X891750Y19000D02*
X892750D01*
X891750Y5500D02*
X892750D01*
X892250Y250D02*
X893250D01*
X892250Y-12750D02*
X893250D01*
X928250Y10750D02*
Y11750D01*
X915250Y10750D02*
Y11750D01*
X811500Y136500D02*
X812500D01*
X811500Y123000D02*
X812500D01*
X782250Y117000D02*
X783250D01*
X782250Y106000D02*
X783250D01*
X732500Y21250D02*
X733500D01*
X732500Y32250D02*
X733500D01*
X833750Y151500D02*
Y152500D01*
X844750Y151500D02*
Y152500D01*
X751000Y142750D02*
X752000D01*
X751000Y153750D02*
X752000D01*
X733500Y106460D02*
Y119040D01*
X760500Y106460D02*
Y119040D01*
X775000Y136750D02*
X776000D01*
X775000Y125750D02*
X776000D01*
X779250Y13750D02*
X780250D01*
X779250Y27250D02*
X780250D01*
X336150Y481700D02*
Y505800D01*
Y481700D02*
X493650D01*
Y505800D01*
X336150D02*
X493650D01*
X724100Y465575D02*
Y489675D01*
X566600D02*
X724100D01*
X566600Y465575D02*
Y489675D01*
Y465575D02*
X724100D01*
Y435200D02*
Y459300D01*
X566600D02*
X724100D01*
X566600Y435200D02*
Y459300D01*
Y435200D02*
X724100D01*
X249700Y441250D02*
X273800D01*
X249700Y186250D02*
Y441250D01*
Y186250D02*
X273800D01*
Y441250D01*
X717151Y38550D02*
Y53950D01*
X714650Y58950D02*
X717151Y53950D01*
X694251Y58950D02*
X714650D01*
X691751Y53950D02*
X694251Y58950D01*
X689250D02*
X691751Y53950D01*
X668851Y58950D02*
X689250D01*
X666351Y53950D02*
X668851Y58950D01*
X666351Y38550D02*
X668851Y33550D01*
X689250D01*
X691751Y38550D01*
X694251Y33550D01*
X714650D01*
X717151Y38550D01*
X666349D02*
Y53950D01*
X691200Y155450D02*
X715300D01*
X691200Y366250D02*
X715300D01*
X691200Y155450D02*
Y366250D01*
X715300Y155450D02*
Y366250D01*
X247750Y46500D02*
X248750D01*
X247750Y60000D02*
X248750D01*
X124450Y496550D02*
X148550D01*
X124450Y364450D02*
Y496550D01*
Y364450D02*
X148550D01*
Y496550D01*
X154300Y490450D02*
X203800D01*
X154300Y383750D02*
Y490450D01*
Y383750D02*
X203800D01*
Y490450D01*
D80*
X579250Y-27750D02*
G03*
X579250Y-27750I-500J0D01*
G01*
D81*
X473500Y319750D02*
G03*
X473500Y319750I-3000J0D01*
G01*
X853750Y48750D02*
G03*
X853750Y48750I-3000J0D01*
G01*
D82*
X609000Y-86400D02*
Y-73600D01*
X718800Y-152150D02*
Y-139350D01*
X656750Y-37650D02*
Y-24850D01*
D83*
X916270Y83250D02*
X929730D01*
X916270Y51250D02*
X929730D01*
D84*
X-45000Y99000D02*
X97000D01*
X-45000Y199000D02*
X97000D01*
Y99000D02*
Y199000D01*
X-45000Y99000D02*
Y199000D01*
X-44730Y109330D02*
X-34730Y99330D01*
D85*
X154281Y501643D02*
X153282D01*
X153781D01*
Y499144D01*
X153282Y498644D01*
X152782D01*
X152282Y499144D01*
X155281Y498644D02*
X156281D01*
X155781D01*
Y501643D01*
X155281Y501143D01*
X151500Y-92500D02*
Y-89501D01*
X152999D01*
X153499Y-90001D01*
Y-91000D01*
X152999Y-91500D01*
X151500D01*
X152500D02*
X153499Y-92500D01*
X155998D02*
Y-89501D01*
X154499Y-91000D01*
X156498D01*
X157498Y-90001D02*
X157998Y-89501D01*
X158997D01*
X159497Y-90001D01*
Y-90501D01*
X158997Y-91000D01*
X158498D01*
X158997D01*
X159497Y-91500D01*
Y-92000D01*
X158997Y-92500D01*
X157998D01*
X157498Y-92000D01*
X137250Y-60750D02*
Y-57751D01*
X138750D01*
X139249Y-58251D01*
Y-59250D01*
X138750Y-59750D01*
X137250D01*
X138250D02*
X139249Y-60750D01*
X141749D02*
Y-57751D01*
X140249Y-59250D01*
X142248D01*
X145247Y-60750D02*
X143248D01*
X145247Y-58751D01*
Y-58251D01*
X144747Y-57751D01*
X143748D01*
X143248Y-58251D01*
X138000Y-43250D02*
Y-40251D01*
X139500D01*
X139999Y-40751D01*
Y-41750D01*
X139500Y-42250D01*
X138000D01*
X139000D02*
X139999Y-43250D01*
X142499D02*
Y-40251D01*
X140999Y-41750D01*
X142998D01*
X143998Y-40751D02*
X144498Y-40251D01*
X145498D01*
X145997Y-40751D01*
Y-42750D01*
X145498Y-43250D01*
X144498D01*
X143998Y-42750D01*
Y-40751D01*
X586000Y-79251D02*
Y-82250D01*
X587500D01*
X587999Y-81750D01*
Y-79751D01*
X587500Y-79251D01*
X586000D01*
X590499Y-82250D02*
Y-79251D01*
X588999Y-80751D01*
X590998D01*
X689999Y-104499D02*
X690499Y-104000D01*
Y-103000D01*
X689999Y-102500D01*
X688000D01*
X687500Y-103000D01*
Y-104000D01*
X688000Y-104499D01*
X687500Y-105499D02*
X690499D01*
X687500Y-107498D01*
X690499D01*
X687500Y-109998D02*
X690499D01*
X688999Y-108498D01*
Y-110497D01*
X606249Y-66001D02*
X605750Y-65501D01*
X604750D01*
X604250Y-66001D01*
Y-68000D01*
X604750Y-68500D01*
X605750D01*
X606249Y-68000D01*
X608749Y-68500D02*
Y-65501D01*
X607249Y-67000D01*
X609248D01*
X610248Y-66001D02*
X610748Y-65501D01*
X611748D01*
X612247Y-66001D01*
Y-66501D01*
X611748Y-67000D01*
X611248D01*
X611748D01*
X612247Y-67500D01*
Y-68000D01*
X611748Y-68500D01*
X610748D01*
X610248Y-68000D01*
X580249Y-12749D02*
X580749Y-12249D01*
Y-11250D01*
X580249Y-10750D01*
X578250D01*
X577750Y-11250D01*
Y-12249D01*
X578250Y-12749D01*
X577750Y-15249D02*
X580749D01*
X579249Y-13749D01*
Y-15748D01*
X577750Y-18747D02*
Y-16748D01*
X579749Y-18747D01*
X580249D01*
X580749Y-18248D01*
Y-17248D01*
X580249Y-16748D01*
X531431Y-67271D02*
X530931Y-66771D01*
X529931D01*
X529431Y-67271D01*
Y-69271D01*
X529931Y-69770D01*
X530931D01*
X531431Y-69271D01*
X533930Y-69770D02*
Y-66771D01*
X532430Y-68271D01*
X534430D01*
X535429Y-69770D02*
X536429D01*
X535929D01*
Y-66771D01*
X535429Y-67271D01*
X529499Y-30251D02*
X528999Y-29751D01*
X528000D01*
X527500Y-30251D01*
Y-32250D01*
X528000Y-32750D01*
X528999D01*
X529499Y-32250D01*
X531999Y-32750D02*
Y-29751D01*
X530499Y-31251D01*
X532498D01*
X533498Y-30251D02*
X533998Y-29751D01*
X534998D01*
X535497Y-30251D01*
Y-32250D01*
X534998Y-32750D01*
X533998D01*
X533498Y-32250D01*
Y-30251D01*
X266500Y22250D02*
Y25249D01*
X267999D01*
X268499Y24749D01*
Y23749D01*
X267999Y23250D01*
X266500D01*
X267500D02*
X268499Y22250D01*
X270998D02*
Y25249D01*
X269499Y23749D01*
X271498D01*
X272498Y22250D02*
X273498D01*
X272998D01*
Y25249D01*
X272498Y24749D01*
X644000Y309999D02*
X645999D01*
X645000D01*
Y307000D01*
X646999D02*
Y309999D01*
X648499D01*
X648998Y309499D01*
Y308500D01*
X648499Y308000D01*
X646999D01*
X649998Y309499D02*
X650498Y309999D01*
X651498D01*
X651997Y309499D01*
Y308999D01*
X651498Y308500D01*
X650998D01*
X651498D01*
X651997Y308000D01*
Y307500D01*
X651498Y307000D01*
X650498D01*
X649998Y307500D01*
X652997Y307000D02*
X653997D01*
X653497D01*
Y309999D01*
X652997Y309499D01*
X634000Y385250D02*
Y388249D01*
X635499D01*
X635999Y387749D01*
Y386749D01*
X635499Y386250D01*
X634000D01*
X635000D02*
X635999Y385250D01*
X638498D02*
Y388249D01*
X636999Y386749D01*
X638998D01*
X641498Y385250D02*
Y388249D01*
X639998Y386749D01*
X641997D01*
X651000Y422750D02*
Y425749D01*
X652499D01*
X652999Y425249D01*
Y424249D01*
X652499Y423750D01*
X651000D01*
X652000D02*
X652999Y422750D01*
X653999Y425249D02*
X654499Y425749D01*
X655499D01*
X655998Y425249D01*
Y424749D01*
X655499Y424249D01*
X654999D01*
X655499D01*
X655998Y423750D01*
Y423250D01*
X655499Y422750D01*
X654499D01*
X653999Y423250D01*
X658997Y425749D02*
X656998D01*
Y424249D01*
X657998Y424749D01*
X658498D01*
X658997Y424249D01*
Y423250D01*
X658498Y422750D01*
X657498D01*
X656998Y423250D01*
X683000Y415249D02*
Y412250D01*
X684999D01*
X687498D02*
X686499D01*
X685999Y412750D01*
Y413750D01*
X686499Y414249D01*
X687498D01*
X687998Y413750D01*
Y413250D01*
X685999D01*
X690997Y415249D02*
Y412250D01*
X689498D01*
X688998Y412750D01*
Y413750D01*
X689498Y414249D01*
X690997D01*
X693997Y412250D02*
X691997D01*
X693997Y414249D01*
Y414749D01*
X693497Y415249D01*
X692497D01*
X691997Y414749D01*
X798250Y-45251D02*
X797750Y-44751D01*
X796750D01*
X796250Y-45251D01*
Y-47250D01*
X796750Y-47750D01*
X797750D01*
X798250Y-47250D01*
X801249Y-44751D02*
X799249D01*
Y-46250D01*
X800249Y-45750D01*
X800749D01*
X801249Y-46250D01*
Y-47250D01*
X800749Y-47750D01*
X799749D01*
X799249Y-47250D01*
X802248D02*
X802748Y-47750D01*
X803748D01*
X804248Y-47250D01*
Y-45251D01*
X803748Y-44751D01*
X802748D01*
X802248Y-45251D01*
Y-45750D01*
X802748Y-46250D01*
X804248D01*
X155999Y308099D02*
X155000D01*
X155499D01*
Y305600D01*
X155000Y305100D01*
X154500D01*
X154000Y305600D01*
X158998Y308099D02*
X157999Y307599D01*
X156999Y306600D01*
Y305600D01*
X157499Y305100D01*
X158498D01*
X158998Y305600D01*
Y306100D01*
X158498Y306600D01*
X156999D01*
X632249Y367249D02*
X631749Y367749D01*
X630750D01*
X630250Y367249D01*
Y365250D01*
X630750Y364750D01*
X631749D01*
X632249Y365250D01*
X633249Y367249D02*
X633749Y367749D01*
X634748D01*
X635248Y367249D01*
Y366749D01*
X634748Y366250D01*
X634249D01*
X634748D01*
X635248Y365750D01*
Y365250D01*
X634748Y364750D01*
X633749D01*
X633249Y365250D01*
X636248Y367249D02*
X636748Y367749D01*
X637747D01*
X638247Y367249D01*
Y366749D01*
X637747Y366250D01*
X638247Y365750D01*
Y365250D01*
X637747Y364750D01*
X636748D01*
X636248Y365250D01*
Y365750D01*
X636748Y366250D01*
X636248Y366749D01*
Y367249D01*
X636748Y366250D02*
X637747D01*
X632249Y180499D02*
X631749Y180999D01*
X630750D01*
X630250Y180499D01*
Y178500D01*
X630750Y178000D01*
X631749D01*
X632249Y178500D01*
X633249Y180499D02*
X633749Y180999D01*
X634748D01*
X635248Y180499D01*
Y179999D01*
X634748Y179499D01*
X634249D01*
X634748D01*
X635248Y179000D01*
Y178500D01*
X634748Y178000D01*
X633749D01*
X633249Y178500D01*
X636248Y180999D02*
X638247D01*
Y180499D01*
X636248Y178500D01*
Y178000D01*
X429251Y154249D02*
X428751Y153750D01*
Y152750D01*
X429251Y152250D01*
X431250D01*
X431750Y152750D01*
Y153750D01*
X431250Y154249D01*
X429251Y155249D02*
X428751Y155749D01*
Y156749D01*
X429251Y157248D01*
X429751D01*
X430251Y156749D01*
Y156249D01*
Y156749D01*
X430750Y157248D01*
X431250D01*
X431750Y156749D01*
Y155749D01*
X431250Y155249D01*
X428751Y160247D02*
X429251Y159248D01*
X430251Y158248D01*
X431250D01*
X431750Y158748D01*
Y159748D01*
X431250Y160247D01*
X430750D01*
X430251Y159748D01*
Y158248D01*
X500349Y494000D02*
X498350D01*
X497350Y493000D01*
X498350Y492001D01*
X500349D01*
Y491001D02*
X497350D01*
Y489002D01*
X500349Y486003D02*
X499849Y487002D01*
X498849Y488002D01*
X497850D01*
X497350Y487502D01*
Y486502D01*
X497850Y486003D01*
X498350D01*
X498849Y486502D01*
Y488002D01*
X560651Y480625D02*
X562650D01*
X563650Y481625D01*
X562650Y482624D01*
X560651D01*
Y483624D02*
X563650D01*
Y485623D01*
X560651Y488622D02*
Y486623D01*
X562150D01*
X561651Y487623D01*
Y488122D01*
X562150Y488622D01*
X563150D01*
X563650Y488122D01*
Y487123D01*
X563150Y486623D01*
X569151Y448500D02*
X571150D01*
X572150Y449500D01*
X571150Y450499D01*
X569151D01*
Y451499D02*
X572150D01*
Y453498D01*
Y455998D02*
X569151D01*
X570650Y454498D01*
Y456497D01*
X559750Y90249D02*
Y88250D01*
X560750Y87250D01*
X561749Y88250D01*
Y90249D01*
X562749D02*
Y87250D01*
X564748D01*
X565748Y89749D02*
X566248Y90249D01*
X567248D01*
X567747Y89749D01*
Y89249D01*
X567248Y88750D01*
X566748D01*
X567248D01*
X567747Y88250D01*
Y87750D01*
X567248Y87250D01*
X566248D01*
X565748Y87750D01*
X391900Y94499D02*
Y92500D01*
X392900Y91500D01*
X393899Y92500D01*
Y94499D01*
X394899D02*
Y91500D01*
X396898D01*
X399897D02*
X397898D01*
X399897Y93499D01*
Y93999D01*
X399398Y94499D01*
X398398D01*
X397898Y93999D01*
X391600Y123499D02*
Y121500D01*
X392600Y120500D01*
X393599Y121500D01*
Y123499D01*
X394599D02*
Y120500D01*
X396598D01*
X397598D02*
X398598D01*
X398098D01*
Y123499D01*
X397598Y122999D01*
X693999Y372249D02*
X693000D01*
X693500D01*
Y369750D01*
X693000Y369250D01*
X692500D01*
X692000Y369750D01*
X694999D02*
X695499Y369250D01*
X696499D01*
X696998Y369750D01*
Y371749D01*
X696499Y372249D01*
X695499D01*
X694999Y371749D01*
Y371249D01*
X695499Y370750D01*
X696998D01*
X564649Y130749D02*
X563650D01*
X564150D01*
Y128250D01*
X563650Y127750D01*
X563150D01*
X562650Y128250D01*
X567149Y127750D02*
Y130749D01*
X565649Y129249D01*
X567648D01*
X253249Y447749D02*
X252250D01*
X252750D01*
Y445250D01*
X252250Y444750D01*
X251750D01*
X251250Y445250D01*
X256248Y444750D02*
X254249D01*
X256248Y446749D01*
Y447249D01*
X255749Y447749D01*
X254749D01*
X254249Y447249D01*
X823000Y-68501D02*
X821000D01*
Y-71500D01*
X823000D01*
X821000Y-70000D02*
X822000D01*
X825999Y-69001D02*
X825499Y-68501D01*
X824499D01*
X823999Y-69001D01*
Y-69500D01*
X824499Y-70000D01*
X825499D01*
X825999Y-70500D01*
Y-71000D01*
X825499Y-71500D01*
X824499D01*
X823999Y-71000D01*
X826998Y-68501D02*
Y-71500D01*
X828498D01*
X828998Y-71000D01*
Y-69001D01*
X828498Y-68501D01*
X826998D01*
X397550Y-131001D02*
Y-133001D01*
X398549Y-134000D01*
X399549Y-133001D01*
Y-131001D01*
X400549D02*
X401549D01*
X401049D01*
Y-134000D01*
X400549D01*
X401549D01*
X403048D02*
Y-131001D01*
X405047Y-134000D01*
Y-131001D01*
X336499Y23251D02*
X336999Y23751D01*
Y24750D01*
X336499Y25250D01*
X334500D01*
X334000Y24750D01*
Y23751D01*
X334500Y23251D01*
X336999Y20252D02*
Y22251D01*
X335499D01*
X335999Y21251D01*
Y20751D01*
X335499Y20252D01*
X334500D01*
X334000Y20751D01*
Y21751D01*
X334500Y22251D01*
X336999Y19252D02*
Y17253D01*
X336499D01*
X334500Y19252D01*
X334000D01*
X314750Y35751D02*
Y38750D01*
X313251D01*
X312751Y38250D01*
Y37750D01*
X313251Y37250D01*
X314750D01*
X313251D01*
X312751Y36751D01*
Y36251D01*
X313251Y35751D01*
X314750D01*
X311751Y38750D02*
Y35751D01*
X310751Y36751D01*
X309752Y35751D01*
Y38750D01*
X308752Y35751D02*
Y38750D01*
X307252D01*
X306753Y38250D01*
Y36251D01*
X307252Y35751D01*
X308752D01*
X305753Y39250D02*
X303754D01*
X302754Y38750D02*
Y36751D01*
X301754Y35751D01*
X300755Y36751D01*
Y38750D01*
Y37250D01*
X302754D01*
X299755Y35751D02*
X297756D01*
X298755D01*
Y38750D01*
X296756Y39250D02*
X294757D01*
X291757Y35751D02*
X293757D01*
Y38750D01*
X291757D01*
X293757Y37250D02*
X292757D01*
X290758Y38750D02*
Y35751D01*
X288758Y38750D01*
Y35751D01*
X412999Y179749D02*
X411000D01*
Y178250D01*
X412000D01*
X411000D01*
Y176750D01*
X413999Y179749D02*
Y176750D01*
X415499D01*
X415998Y177250D01*
Y177750D01*
X415499Y178250D01*
X413999D01*
X415499D01*
X415998Y178749D01*
Y179249D01*
X415499Y179749D01*
X413999D01*
X416998Y176750D02*
X417998D01*
X417498D01*
Y179749D01*
X416998Y179249D01*
X412999Y372249D02*
X412500Y372749D01*
X411500D01*
X411000Y372249D01*
Y370250D01*
X411500Y369750D01*
X412500D01*
X412999Y370250D01*
X415998Y372749D02*
X413999D01*
Y371250D01*
X414999Y371749D01*
X415499D01*
X415998Y371250D01*
Y370250D01*
X415499Y369750D01*
X414499D01*
X413999Y370250D01*
X416998Y369750D02*
X417998D01*
X417498D01*
Y372749D01*
X416998Y372249D01*
X785000Y291250D02*
Y294249D01*
X786499D01*
X786999Y293749D01*
Y292750D01*
X786499Y292250D01*
X785000D01*
X786000D02*
X786999Y291250D01*
X787999Y293749D02*
X788499Y294249D01*
X789499D01*
X789998Y293749D01*
Y293249D01*
X789499Y292750D01*
X788999D01*
X789499D01*
X789998Y292250D01*
Y291750D01*
X789499Y291250D01*
X788499D01*
X787999Y291750D01*
X792498Y291250D02*
Y294249D01*
X790998Y292750D01*
X792997D01*
X784000Y313500D02*
Y316499D01*
X785499D01*
X785999Y315999D01*
Y315000D01*
X785499Y314500D01*
X784000D01*
X785000D02*
X785999Y313500D01*
X786999Y315999D02*
X787499Y316499D01*
X788499D01*
X788998Y315999D01*
Y315499D01*
X788499Y315000D01*
X787999D01*
X788499D01*
X788998Y314500D01*
Y314000D01*
X788499Y313500D01*
X787499D01*
X786999Y314000D01*
X789998Y315999D02*
X790498Y316499D01*
X791498D01*
X791997Y315999D01*
Y315499D01*
X791498Y315000D01*
X790998D01*
X791498D01*
X791997Y314500D01*
Y314000D01*
X791498Y313500D01*
X790498D01*
X789998Y314000D01*
X786250Y331250D02*
Y334249D01*
X787749D01*
X788249Y333749D01*
Y332749D01*
X787749Y332250D01*
X786250D01*
X787250D02*
X788249Y331250D01*
X789249Y333749D02*
X789749Y334249D01*
X790749D01*
X791248Y333749D01*
Y333249D01*
X790749Y332749D01*
X790249D01*
X790749D01*
X791248Y332250D01*
Y331750D01*
X790749Y331250D01*
X789749D01*
X789249Y331750D01*
X794247Y331250D02*
X792248D01*
X794247Y333249D01*
Y333749D01*
X793748Y334249D01*
X792748D01*
X792248Y333749D01*
X786750Y348000D02*
Y350999D01*
X788250D01*
X788749Y350499D01*
Y349500D01*
X788250Y349000D01*
X786750D01*
X787750D02*
X788749Y348000D01*
X789749Y350499D02*
X790249Y350999D01*
X791248D01*
X791748Y350499D01*
Y349999D01*
X791248Y349500D01*
X790749D01*
X791248D01*
X791748Y349000D01*
Y348500D01*
X791248Y348000D01*
X790249D01*
X789749Y348500D01*
X792748Y348000D02*
X793748D01*
X793248D01*
Y350999D01*
X792748Y350499D01*
X692500Y29999D02*
X693000Y30499D01*
X693999D01*
X694499Y29999D01*
Y29499D01*
X693999Y29000D01*
X693500D01*
X693999D01*
X694499Y28500D01*
Y28000D01*
X693999Y27500D01*
X693000D01*
X692500Y28000D01*
X695499Y30499D02*
Y28500D01*
X696499Y27500D01*
X697498Y28500D01*
Y30499D01*
X698498Y29999D02*
X698998Y30499D01*
X699998D01*
X700497Y29999D01*
Y29499D01*
X699998Y29000D01*
X699498D01*
X699998D01*
X700497Y28500D01*
Y28000D01*
X699998Y27500D01*
X698998D01*
X698498Y28000D01*
X701997Y29999D02*
Y29499D01*
X701497D01*
X702497D01*
X701997D01*
Y28000D01*
X702497Y27500D01*
X704496D02*
X705496D01*
X705996Y28000D01*
Y29000D01*
X705496Y29499D01*
X704496D01*
X703996Y29000D01*
Y28000D01*
X704496Y27500D01*
X706995Y30499D02*
Y28500D01*
X707995Y27500D01*
X708995Y28500D01*
Y30499D01*
X709994D02*
Y27500D01*
X711494D01*
X711994Y28000D01*
Y29999D01*
X711494Y30499D01*
X709994D01*
X712993D02*
Y27500D01*
X714493D01*
X714993Y28000D01*
Y29999D01*
X714493Y30499D01*
X712993D01*
X187999Y209949D02*
X186999D01*
X187499D01*
Y207450D01*
X186999Y206950D01*
X186500D01*
X186000Y207450D01*
X188999Y206950D02*
X189999D01*
X189499D01*
Y209949D01*
X188999Y209449D01*
X191498D02*
X191998Y209949D01*
X192998D01*
X193498Y209449D01*
Y207450D01*
X192998Y206950D01*
X191998D01*
X191498Y207450D01*
Y209449D01*
X157299Y321499D02*
X156300D01*
X156799D01*
Y319000D01*
X156300Y318500D01*
X155800D01*
X155300Y319000D01*
X158299Y320999D02*
X158799Y321499D01*
X159799D01*
X160298Y320999D01*
Y320499D01*
X159799Y320000D01*
X160298Y319500D01*
Y319000D01*
X159799Y318500D01*
X158799D01*
X158299Y319000D01*
Y319500D01*
X158799Y320000D01*
X158299Y320499D01*
Y320999D01*
X158799Y320000D02*
X159799D01*
X13249Y31999D02*
X12250D01*
X12750D01*
Y29500D01*
X12250Y29000D01*
X11750D01*
X11250Y29500D01*
X14249Y31999D02*
X16248D01*
Y31499D01*
X14249Y29500D01*
Y29000D01*
X901750Y286900D02*
Y283901D01*
X900750Y284901D01*
X899751Y283901D01*
Y286900D01*
X896752D02*
X898751D01*
X896752Y284901D01*
Y284401D01*
X897252Y283901D01*
X898251D01*
X898751Y284401D01*
X739500Y459250D02*
Y462249D01*
X740500Y461249D01*
X741499Y462249D01*
Y459250D01*
X742499D02*
X743499D01*
X742999D01*
Y462249D01*
X742499Y461749D01*
X843601Y-39249D02*
X844600D01*
X844100D01*
Y-36750D01*
X844600Y-36250D01*
X845100D01*
X845600Y-36750D01*
X842601Y-38749D02*
X842101Y-39249D01*
X841101D01*
X840602Y-38749D01*
Y-38249D01*
X841101Y-37750D01*
X841601D01*
X841101D01*
X840602Y-37250D01*
Y-36750D01*
X841101Y-36250D01*
X842101D01*
X842601Y-36750D01*
X245249Y66999D02*
X244750Y67499D01*
X243750D01*
X243250Y66999D01*
Y65000D01*
X243750Y64500D01*
X244750D01*
X245249Y65000D01*
X248248Y67499D02*
X246249D01*
Y65999D01*
X247249Y66499D01*
X247749D01*
X248248Y65999D01*
Y65000D01*
X247749Y64500D01*
X246749D01*
X246249Y65000D01*
X249248Y66999D02*
X249748Y67499D01*
X250748D01*
X251247Y66999D01*
Y66499D01*
X250748Y65999D01*
X251247Y65500D01*
Y65000D01*
X250748Y64500D01*
X249748D01*
X249248Y65000D01*
Y65500D01*
X249748Y65999D01*
X249248Y66499D01*
Y66999D01*
X249748Y65999D02*
X250748D01*
X793751Y7251D02*
X794250Y6751D01*
X795250D01*
X795750Y7251D01*
Y9250D01*
X795250Y9750D01*
X794250D01*
X793751Y9250D01*
X790752Y6751D02*
X792751D01*
Y8250D01*
X791751Y7751D01*
X791252D01*
X790752Y8250D01*
Y9250D01*
X791252Y9750D01*
X792251D01*
X792751Y9250D01*
X787753Y6751D02*
X789752D01*
Y8250D01*
X788752Y7751D01*
X788252D01*
X787753Y8250D01*
Y9250D01*
X788252Y9750D01*
X789252D01*
X789752Y9250D01*
X928499Y121251D02*
X928999Y121750D01*
Y122750D01*
X928499Y123250D01*
X926500D01*
X926000Y122750D01*
Y121750D01*
X926500Y121251D01*
X928999Y118252D02*
Y120251D01*
X927499D01*
X927999Y119251D01*
Y118751D01*
X927499Y118252D01*
X926500D01*
X926000Y118751D01*
Y119751D01*
X926500Y120251D01*
X928499Y117252D02*
X928999Y116752D01*
Y115752D01*
X928499Y115253D01*
X927999D01*
X927499Y115752D01*
Y116252D01*
Y115752D01*
X927000Y115253D01*
X926500D01*
X926000Y115752D01*
Y116752D01*
X926500Y117252D01*
X905001Y22501D02*
X905500Y22001D01*
X906500D01*
X907000Y22501D01*
Y24500D01*
X906500Y25000D01*
X905500D01*
X905001Y24500D01*
X902002Y22001D02*
X904001D01*
Y23500D01*
X903001Y23001D01*
X902502D01*
X902002Y23500D01*
Y24500D01*
X902502Y25000D01*
X903501D01*
X904001Y24500D01*
X899003Y25000D02*
X901002D01*
X899003Y23001D01*
Y22501D01*
X899502Y22001D01*
X900502D01*
X901002Y22501D01*
X461249Y425001D02*
X461749Y425500D01*
Y426500D01*
X461249Y427000D01*
X459250D01*
X458750Y426500D01*
Y425500D01*
X459250Y425001D01*
X461249Y424001D02*
X461749Y423501D01*
Y422501D01*
X461249Y422002D01*
X460749D01*
X460249Y422501D01*
Y423001D01*
Y422501D01*
X459750Y422002D01*
X459250D01*
X458750Y422501D01*
Y423501D01*
X459250Y424001D01*
Y421002D02*
X458750Y420502D01*
Y419502D01*
X459250Y419003D01*
X461249D01*
X461749Y419502D01*
Y420502D01*
X461249Y421002D01*
X460749D01*
X460249Y420502D01*
Y419003D01*
X391751Y190749D02*
X391251Y190250D01*
Y189250D01*
X391751Y188750D01*
X393750D01*
X394250Y189250D01*
Y190250D01*
X393750Y190749D01*
X391751Y191749D02*
X391251Y192249D01*
Y193249D01*
X391751Y193748D01*
X392251D01*
X392751Y193249D01*
Y192749D01*
Y193249D01*
X393250Y193748D01*
X393750D01*
X394250Y193249D01*
Y192249D01*
X393750Y191749D01*
X391251Y196747D02*
Y194748D01*
X392751D01*
X392251Y195748D01*
Y196248D01*
X392751Y196747D01*
X393750D01*
X394250Y196248D01*
Y195248D01*
X393750Y194748D01*
X246750Y75501D02*
Y78500D01*
X245250D01*
X244751Y78000D01*
Y77500D01*
X245250Y77000D01*
X246750D01*
X245250D01*
X244751Y76501D01*
Y76001D01*
X245250Y75501D01*
X246750D01*
X243751Y78500D02*
Y75501D01*
X242751Y76501D01*
X241752Y75501D01*
Y78500D01*
X240752Y75501D02*
Y78500D01*
X239252D01*
X238753Y78000D01*
Y76001D01*
X239252Y75501D01*
X240752D01*
X237753Y79000D02*
X235753D01*
X234754Y78500D02*
Y75501D01*
X233254D01*
X232754Y76001D01*
Y77000D01*
X233254Y77500D01*
X234754D01*
X233754D02*
X232754Y78500D01*
X229755Y76001D02*
X230255Y75501D01*
X231255D01*
X231755Y76001D01*
Y76501D01*
X231255Y77000D01*
X230255D01*
X229755Y77500D01*
Y78000D01*
X230255Y78500D01*
X231255D01*
X231755Y78000D01*
X228756Y75501D02*
X226756D01*
X227756D01*
Y78500D01*
X862249Y-151750D02*
X859750D01*
X859250Y-152250D01*
Y-153250D01*
X859750Y-153750D01*
X862249D01*
X861749Y-156749D02*
X862249Y-156249D01*
Y-155249D01*
X861749Y-154749D01*
X861249D01*
X860750Y-155249D01*
Y-156249D01*
X860250Y-156749D01*
X859750D01*
X859250Y-156249D01*
Y-155249D01*
X859750Y-154749D01*
X862249Y-157748D02*
X859250D01*
Y-159248D01*
X859750Y-159747D01*
X860250D01*
X860750Y-159248D01*
Y-157748D01*
Y-159248D01*
X861249Y-159747D01*
X861749D01*
X862249Y-159248D01*
Y-157748D01*
X838250Y-88000D02*
Y-85001D01*
X839749D01*
X840249Y-85501D01*
Y-86500D01*
X839749Y-87000D01*
X838250D01*
X839249D02*
X840249Y-88000D01*
X843248D02*
X841249D01*
X843248Y-86000D01*
Y-85501D01*
X842748Y-85001D01*
X841749D01*
X841249Y-85501D01*
X844248D02*
X844748Y-85001D01*
X845747D01*
X846247Y-85501D01*
Y-87500D01*
X845747Y-88000D01*
X844748D01*
X844248Y-87500D01*
Y-85501D01*
X459801Y-79500D02*
X462800D01*
Y-78001D01*
X462300Y-77501D01*
X461800D01*
X461301Y-78001D01*
Y-79500D01*
Y-78001D01*
X460801Y-77501D01*
X460301D01*
X459801Y-78001D01*
Y-79500D01*
X462800Y-76501D02*
X460801D01*
X459801Y-75501D01*
X460801Y-74502D01*
X462800D01*
X461301D01*
Y-76501D01*
X459801Y-73502D02*
Y-71503D01*
Y-72502D01*
X462800D01*
X-46872Y209915D02*
Y206916D01*
X-45372D01*
X-44872Y207416D01*
Y207916D01*
X-45372Y208416D01*
X-46872D01*
X-45372D01*
X-44872Y208915D01*
Y209415D01*
X-45372Y209915D01*
X-46872D01*
X-43873Y206916D02*
Y209915D01*
X-42873Y208915D01*
X-41873Y209915D01*
Y206916D01*
X-40874Y209915D02*
Y206916D01*
X-39374D01*
X-38874Y207416D01*
Y209415D01*
X-39374Y209915D01*
X-40874D01*
X51251Y44249D02*
X50751Y43750D01*
Y42750D01*
X51251Y42250D01*
X53250D01*
X53750Y42750D01*
Y43750D01*
X53250Y44249D01*
X53750Y45249D02*
Y46249D01*
Y45749D01*
X50751D01*
X51251Y45249D01*
X50251Y62249D02*
X49751Y61750D01*
Y60750D01*
X50251Y60250D01*
X52250D01*
X52750Y60750D01*
Y61750D01*
X52250Y62249D01*
X52750Y65248D02*
Y63249D01*
X50751Y65248D01*
X50251D01*
X49751Y64749D01*
Y63749D01*
X50251Y63249D01*
X920751Y26251D02*
X921251Y25751D01*
X922250D01*
X922750Y26251D01*
Y28250D01*
X922250Y28750D01*
X921251D01*
X920751Y28250D01*
X919751Y26251D02*
X919251Y25751D01*
X918251D01*
X917752Y26251D01*
Y26751D01*
X918251Y27250D01*
X918751D01*
X918251D01*
X917752Y27750D01*
Y28250D01*
X918251Y28750D01*
X919251D01*
X919751Y28250D01*
X952499Y97751D02*
X952999Y98251D01*
Y99250D01*
X952499Y99750D01*
X950500D01*
X950000Y99250D01*
Y98251D01*
X950500Y97751D01*
X950000Y95251D02*
X952999D01*
X951499Y96751D01*
Y94752D01*
X125499Y99751D02*
X125999Y100251D01*
Y101250D01*
X125499Y101750D01*
X123500D01*
X123000Y101250D01*
Y100251D01*
X123500Y99751D01*
X125999Y96752D02*
Y98751D01*
X124500D01*
X124999Y97751D01*
Y97251D01*
X124500Y96752D01*
X123500D01*
X123000Y97251D01*
Y98251D01*
X123500Y98751D01*
X105251Y178249D02*
X104751Y177750D01*
Y176750D01*
X105251Y176250D01*
X107250D01*
X107750Y176750D01*
Y177750D01*
X107250Y178249D01*
X104751Y181248D02*
X105251Y180249D01*
X106250Y179249D01*
X107250D01*
X107750Y179749D01*
Y180749D01*
X107250Y181248D01*
X106750D01*
X106250Y180749D01*
Y179249D01*
X127251Y179250D02*
X126751Y178750D01*
Y177750D01*
X127251Y177250D01*
X129250D01*
X129750Y177750D01*
Y178750D01*
X129250Y179250D01*
X126751Y180249D02*
Y182249D01*
X127251D01*
X129250Y180249D01*
X129750D01*
X922749Y106749D02*
X922250Y107249D01*
X921250D01*
X920750Y106749D01*
Y104750D01*
X921250Y104250D01*
X922250D01*
X922749Y104750D01*
X923749Y106749D02*
X924249Y107249D01*
X925248D01*
X925748Y106749D01*
Y106249D01*
X925248Y105750D01*
X925748Y105250D01*
Y104750D01*
X925248Y104250D01*
X924249D01*
X923749Y104750D01*
Y105250D01*
X924249Y105750D01*
X923749Y106249D01*
Y106749D01*
X924249Y105750D02*
X925248D01*
X210501Y327251D02*
X211000Y326751D01*
X212000D01*
X212500Y327251D01*
Y329250D01*
X212000Y329750D01*
X211000D01*
X210501Y329250D01*
X209501D02*
X209001Y329750D01*
X208001D01*
X207502Y329250D01*
Y327251D01*
X208001Y326751D01*
X209001D01*
X209501Y327251D01*
Y327751D01*
X209001Y328251D01*
X207502D01*
X178499Y284251D02*
X178999Y284751D01*
Y285750D01*
X178499Y286250D01*
X176500D01*
X176000Y285750D01*
Y284751D01*
X176500Y284251D01*
X176000Y283251D02*
Y282251D01*
Y282751D01*
X178999D01*
X178499Y283251D01*
Y280752D02*
X178999Y280252D01*
Y279252D01*
X178499Y278752D01*
X176500D01*
X176000Y279252D01*
Y280252D01*
X176500Y280752D01*
X178499D01*
X221001Y326751D02*
X221500Y326251D01*
X222500D01*
X223000Y326751D01*
Y328750D01*
X222500Y329250D01*
X221500D01*
X221001Y328750D01*
X220001Y329250D02*
X219001D01*
X219501D01*
Y326251D01*
X220001Y326751D01*
X217502Y329250D02*
X216502D01*
X217002D01*
Y326251D01*
X217502Y326751D01*
X497124Y-38749D02*
X497624Y-38249D01*
Y-37250D01*
X497124Y-36750D01*
X495125D01*
X494625Y-37250D01*
Y-38249D01*
X495125Y-38749D01*
X494625Y-39749D02*
Y-40749D01*
Y-40249D01*
X497624D01*
X497124Y-39749D01*
X494625Y-44248D02*
Y-42248D01*
X496624Y-44248D01*
X497124D01*
X497624Y-43748D01*
Y-42748D01*
X497124Y-42248D01*
X467624Y-38749D02*
X468124Y-38249D01*
Y-37250D01*
X467624Y-36750D01*
X465625D01*
X465125Y-37250D01*
Y-38249D01*
X465625Y-38749D01*
X465125Y-39749D02*
Y-40749D01*
Y-40249D01*
X468124D01*
X467624Y-39749D01*
Y-42248D02*
X468124Y-42748D01*
Y-43748D01*
X467624Y-44248D01*
X467124D01*
X466624Y-43748D01*
Y-43248D01*
Y-43748D01*
X466125Y-44248D01*
X465625D01*
X465125Y-43748D01*
Y-42748D01*
X465625Y-42248D01*
X357249Y349749D02*
X356749Y350249D01*
X355750D01*
X355250Y349749D01*
Y347750D01*
X355750Y347250D01*
X356749D01*
X357249Y347750D01*
X358249Y347250D02*
X359249D01*
X358749D01*
Y350249D01*
X358249Y349749D01*
X362248Y347250D02*
Y350249D01*
X360748Y348750D01*
X362748D01*
X398499Y299999D02*
X397999Y300499D01*
X397000D01*
X396500Y299999D01*
Y298000D01*
X397000Y297500D01*
X397999D01*
X398499Y298000D01*
X399499Y297500D02*
X400499D01*
X399999D01*
Y300499D01*
X399499Y299999D01*
X403998Y300499D02*
X401998D01*
Y299000D01*
X402998Y299499D01*
X403498D01*
X403998Y299000D01*
Y298000D01*
X403498Y297500D01*
X402498D01*
X401998Y298000D01*
X779249Y467749D02*
X778749Y468249D01*
X777750D01*
X777250Y467749D01*
Y465750D01*
X777750Y465250D01*
X778749D01*
X779249Y465750D01*
X780249Y465250D02*
X781249D01*
X780749D01*
Y468249D01*
X780249Y467749D01*
X784748Y468249D02*
X783748Y467749D01*
X782748Y466749D01*
Y465750D01*
X783248Y465250D01*
X784248D01*
X784748Y465750D01*
Y466250D01*
X784248Y466749D01*
X782748D01*
X813999Y470249D02*
X813500Y470749D01*
X812500D01*
X812000Y470249D01*
Y468250D01*
X812500Y467750D01*
X813500D01*
X813999Y468250D01*
X814999Y467750D02*
X815999D01*
X815499D01*
Y470749D01*
X814999Y470249D01*
X817498Y470749D02*
X819498D01*
Y470249D01*
X817498Y468250D01*
Y467750D01*
X821749Y486999D02*
X821249Y487499D01*
X820250D01*
X819750Y486999D01*
Y485000D01*
X820250Y484500D01*
X821249D01*
X821749Y485000D01*
X822749Y484500D02*
X823749D01*
X823249D01*
Y487499D01*
X822749Y486999D01*
X825248D02*
X825748Y487499D01*
X826748D01*
X827247Y486999D01*
Y486499D01*
X826748Y485999D01*
X827247Y485500D01*
Y485000D01*
X826748Y484500D01*
X825748D01*
X825248Y485000D01*
Y485500D01*
X825748Y485999D01*
X825248Y486499D01*
Y486999D01*
X825748Y485999D02*
X826748D01*
X776249Y446999D02*
X775750Y447499D01*
X774750D01*
X774250Y446999D01*
Y445000D01*
X774750Y444500D01*
X775750D01*
X776249Y445000D01*
X777249Y444500D02*
X778249D01*
X777749D01*
Y447499D01*
X777249Y446999D01*
X779748Y445000D02*
X780248Y444500D01*
X781248D01*
X781748Y445000D01*
Y446999D01*
X781248Y447499D01*
X780248D01*
X779748Y446999D01*
Y446499D01*
X780248Y445999D01*
X781748D01*
X693249Y-67751D02*
X692749Y-67251D01*
X691750D01*
X691250Y-67751D01*
Y-69750D01*
X691750Y-70250D01*
X692749D01*
X693249Y-69750D01*
X696248Y-70250D02*
X694249D01*
X696248Y-68250D01*
Y-67751D01*
X695748Y-67251D01*
X694749D01*
X694249Y-67751D01*
X697248D02*
X697748Y-67251D01*
X698747D01*
X699247Y-67751D01*
Y-69750D01*
X698747Y-70250D01*
X697748D01*
X697248Y-69750D01*
Y-67751D01*
X753999Y-63751D02*
X753499Y-63251D01*
X752500D01*
X752000Y-63751D01*
Y-65750D01*
X752500Y-66250D01*
X753499D01*
X753999Y-65750D01*
X756998Y-66250D02*
X754999D01*
X756998Y-64250D01*
Y-63751D01*
X756498Y-63251D01*
X755499D01*
X754999Y-63751D01*
X757998Y-66250D02*
X758997D01*
X758498D01*
Y-63251D01*
X757998Y-63751D01*
X698749Y-114751D02*
X698249Y-114251D01*
X697250D01*
X696750Y-114751D01*
Y-116750D01*
X697250Y-117250D01*
X698249D01*
X698749Y-116750D01*
X701748Y-117250D02*
X699749D01*
X701748Y-115250D01*
Y-114751D01*
X701248Y-114251D01*
X700249D01*
X699749Y-114751D01*
X704747Y-117250D02*
X702748D01*
X704747Y-115250D01*
Y-114751D01*
X704247Y-114251D01*
X703248D01*
X702748Y-114751D01*
X750499Y-128749D02*
X750999Y-128249D01*
Y-127250D01*
X750499Y-126750D01*
X748500D01*
X748000Y-127250D01*
Y-128249D01*
X748500Y-128749D01*
X748000Y-131748D02*
Y-129749D01*
X749999Y-131748D01*
X750499D01*
X750999Y-131248D01*
Y-130249D01*
X750499Y-129749D01*
Y-132748D02*
X750999Y-133248D01*
Y-134247D01*
X750499Y-134747D01*
X749999D01*
X749499Y-134247D01*
Y-133748D01*
Y-134247D01*
X748999Y-134747D01*
X748500D01*
X748000Y-134247D01*
Y-133248D01*
X748500Y-132748D01*
X684249Y-129501D02*
X683749Y-129001D01*
X682749D01*
X682250Y-129501D01*
Y-131500D01*
X682749Y-132000D01*
X683749D01*
X684249Y-131500D01*
X687248Y-132000D02*
X685249D01*
X687248Y-130000D01*
Y-129501D01*
X686748Y-129001D01*
X685748D01*
X685249Y-129501D01*
X689747Y-132000D02*
Y-129001D01*
X688248Y-130500D01*
X690247D01*
X630499Y160999D02*
X630000Y161499D01*
X629000D01*
X628500Y160999D01*
Y159000D01*
X629000Y158500D01*
X630000D01*
X630499Y159000D01*
X633498Y158500D02*
X631499D01*
X633498Y160499D01*
Y160999D01*
X632999Y161499D01*
X631999D01*
X631499Y160999D01*
X636497Y161499D02*
X634498D01*
Y160000D01*
X635498Y160499D01*
X635998D01*
X636497Y160000D01*
Y159000D01*
X635998Y158500D01*
X634998D01*
X634498Y159000D01*
X632999Y350749D02*
X632500Y351249D01*
X631500D01*
X631000Y350749D01*
Y348750D01*
X631500Y348250D01*
X632500D01*
X632999Y348750D01*
X635998Y348250D02*
X633999D01*
X635998Y350249D01*
Y350749D01*
X635499Y351249D01*
X634499D01*
X633999Y350749D01*
X638997Y351249D02*
X637998Y350749D01*
X636998Y349749D01*
Y348750D01*
X637498Y348250D01*
X638498D01*
X638997Y348750D01*
Y349250D01*
X638498Y349749D01*
X636998D01*
X349499Y268251D02*
X349999Y268750D01*
Y269750D01*
X349499Y270250D01*
X347500D01*
X347000Y269750D01*
Y268750D01*
X347500Y268251D01*
X347000Y265252D02*
Y267251D01*
X348999Y265252D01*
X349499D01*
X349999Y265751D01*
Y266751D01*
X349499Y267251D01*
X349999Y264252D02*
Y262253D01*
X349499D01*
X347500Y264252D01*
X347000D01*
X430249Y393750D02*
X430749Y394250D01*
Y395250D01*
X430249Y395750D01*
X428250D01*
X427750Y395250D01*
Y394250D01*
X428250Y393750D01*
X427750Y390751D02*
Y392751D01*
X429749Y390751D01*
X430249D01*
X430749Y391251D01*
Y392251D01*
X430249Y392751D01*
Y389752D02*
X430749Y389252D01*
Y388252D01*
X430249Y387752D01*
X429749D01*
X429249Y388252D01*
X428750Y387752D01*
X428250D01*
X427750Y388252D01*
Y389252D01*
X428250Y389752D01*
X428750D01*
X429249Y389252D01*
X429749Y389752D01*
X430249D01*
X429249Y389252D02*
Y388252D01*
X623754Y-80751D02*
X623254Y-80251D01*
X622255D01*
X621755Y-80751D01*
Y-82750D01*
X622255Y-83250D01*
X623254D01*
X623754Y-82750D01*
X626753Y-83250D02*
X624754D01*
X626753Y-81250D01*
Y-80751D01*
X626253Y-80251D01*
X625254D01*
X624754Y-80751D01*
X627753Y-82750D02*
X628253Y-83250D01*
X629253D01*
X629752Y-82750D01*
Y-80751D01*
X629253Y-80251D01*
X628253D01*
X627753Y-80751D01*
Y-81250D01*
X628253Y-81750D01*
X629752D01*
X698749Y-29999D02*
X699249Y-29499D01*
Y-28500D01*
X698749Y-28000D01*
X696750D01*
X696250Y-28500D01*
Y-29499D01*
X696750Y-29999D01*
X698749Y-30999D02*
X699249Y-31499D01*
Y-32499D01*
X698749Y-32998D01*
X698249D01*
X697749Y-32499D01*
Y-31999D01*
Y-32499D01*
X697250Y-32998D01*
X696750D01*
X696250Y-32499D01*
Y-31499D01*
X696750Y-30999D01*
X698749Y-33998D02*
X699249Y-34498D01*
Y-35498D01*
X698749Y-35997D01*
X696750D01*
X696250Y-35498D01*
Y-34498D01*
X696750Y-33998D01*
X698749D01*
X672249Y-80251D02*
X671749Y-79751D01*
X670750D01*
X670250Y-80251D01*
Y-82250D01*
X670750Y-82750D01*
X671749D01*
X672249Y-82250D01*
X673249Y-80251D02*
X673749Y-79751D01*
X674749D01*
X675248Y-80251D01*
Y-80751D01*
X674749Y-81250D01*
X674249D01*
X674749D01*
X675248Y-81750D01*
Y-82250D01*
X674749Y-82750D01*
X673749D01*
X673249Y-82250D01*
X676248Y-82750D02*
X677248D01*
X676748D01*
Y-79751D01*
X676248Y-80251D01*
X699019Y-60957D02*
X698520Y-60458D01*
X697520D01*
X697020Y-60957D01*
Y-62957D01*
X697520Y-63457D01*
X698520D01*
X699019Y-62957D01*
X700019Y-60957D02*
X700519Y-60458D01*
X701519D01*
X702019Y-60957D01*
Y-61457D01*
X701519Y-61957D01*
X701019D01*
X701519D01*
X702019Y-62457D01*
Y-62957D01*
X701519Y-63457D01*
X700519D01*
X700019Y-62957D01*
X705017Y-63457D02*
X703018D01*
X705017Y-61457D01*
Y-60957D01*
X704518Y-60458D01*
X703518D01*
X703018Y-60957D01*
X733999Y201999D02*
X733500Y202499D01*
X732500D01*
X732000Y201999D01*
Y200000D01*
X732500Y199500D01*
X733500D01*
X733999Y200000D01*
X734999Y199500D02*
Y202499D01*
X736998Y199500D01*
Y202499D01*
X737998Y199500D02*
X738998D01*
X738498D01*
Y202499D01*
X737998Y201999D01*
X732999Y254249D02*
X732499Y254749D01*
X731500D01*
X731000Y254249D01*
Y252250D01*
X731500Y251750D01*
X732499D01*
X732999Y252250D01*
X733999Y251750D02*
Y254749D01*
X735998Y251750D01*
Y254749D01*
X738997Y251750D02*
X736998D01*
X738997Y253749D01*
Y254249D01*
X738498Y254749D01*
X737498D01*
X736998Y254249D01*
X704849Y21001D02*
X705349Y21500D01*
Y22500D01*
X704849Y23000D01*
X702850D01*
X702350Y22500D01*
Y21500D01*
X702850Y21001D01*
X702350Y20001D02*
X705349D01*
X702350Y18002D01*
X705349D01*
X704849Y17002D02*
X705349Y16502D01*
Y15502D01*
X704849Y15002D01*
X704349D01*
X703849Y15502D01*
Y16002D01*
Y15502D01*
X703350Y15002D01*
X702850D01*
X702350Y15502D01*
Y16502D01*
X702850Y17002D01*
X737801Y-147500D02*
X740800D01*
Y-146000D01*
X740300Y-145501D01*
X738301D01*
X737801Y-146000D01*
Y-147500D01*
X740800Y-142502D02*
Y-144501D01*
X738801Y-142502D01*
X738301D01*
X737801Y-143001D01*
Y-144001D01*
X738301Y-144501D01*
X624250Y-23501D02*
Y-26500D01*
X625750D01*
X626249Y-26000D01*
Y-24001D01*
X625750Y-23501D01*
X624250D01*
X627249Y-24001D02*
X627749Y-23501D01*
X628749D01*
X629248Y-24001D01*
Y-24501D01*
X628749Y-25001D01*
X628249D01*
X628749D01*
X629248Y-25500D01*
Y-26000D01*
X628749Y-26500D01*
X627749D01*
X627249Y-26000D01*
X195000Y-26001D02*
Y-29000D01*
X196500D01*
X196999Y-28500D01*
Y-26501D01*
X196500Y-26001D01*
X195000D01*
X197999D02*
Y-29000D01*
X198999Y-28000D01*
X199998Y-29000D01*
Y-26001D01*
X200998Y-29000D02*
Y-26001D01*
X201998Y-27001D01*
X202997Y-26001D01*
Y-29000D01*
X873751Y25251D02*
X875750D01*
Y26751D01*
X874750D01*
X875750D01*
Y28250D01*
X872751D02*
X871751D01*
X872251D01*
Y25251D01*
X872751Y25751D01*
X870252D02*
X869752Y25251D01*
X868752D01*
X868252Y25751D01*
Y27750D01*
X868752Y28250D01*
X869752D01*
X870252Y27750D01*
Y25751D01*
X867253D02*
X866753Y25251D01*
X865753D01*
X865253Y25751D01*
Y26251D01*
X865753Y26751D01*
X866253D01*
X865753D01*
X865253Y27250D01*
Y27750D01*
X865753Y28250D01*
X866753D01*
X867253Y27750D01*
X445749Y359749D02*
X443750D01*
Y358250D01*
X444750D01*
X443750D01*
Y356750D01*
X448249D02*
Y359749D01*
X446749Y358250D01*
X448748D01*
X451747Y356750D02*
X449748D01*
X451747Y358749D01*
Y359249D01*
X451248Y359749D01*
X450248D01*
X449748Y359249D01*
X452747Y357250D02*
X453247Y356750D01*
X454247D01*
X454747Y357250D01*
Y359249D01*
X454247Y359749D01*
X453247D01*
X452747Y359249D01*
Y358749D01*
X453247Y358250D01*
X454747D01*
X233250Y266751D02*
X232250D01*
X232750D01*
Y269750D01*
X233250D01*
X232250D01*
X230751D02*
Y266751D01*
X229751Y267751D01*
X228752Y266751D01*
Y269750D01*
X227752Y266751D02*
Y269250D01*
X227252Y269750D01*
X226252D01*
X225753Y269250D01*
Y266751D01*
X743500Y115249D02*
Y112250D01*
X745499D01*
X747999D02*
X746999D01*
X746499Y112750D01*
Y113750D01*
X746999Y114249D01*
X747999D01*
X748498Y113750D01*
Y113250D01*
X746499D01*
X751497Y115249D02*
Y112250D01*
X749998D01*
X749498Y112750D01*
Y113750D01*
X749998Y114249D01*
X751497D01*
X456624Y20250D02*
X453625D01*
Y18251D01*
Y17251D02*
Y16251D01*
Y16751D01*
X455624D01*
Y17251D01*
X456624Y14752D02*
Y13752D01*
Y14252D01*
X453625D01*
Y14752D01*
Y13752D01*
Y11753D02*
Y10753D01*
X454125Y10253D01*
X455125D01*
X455624Y10753D01*
Y11753D01*
X455125Y12253D01*
X454125D01*
X453625Y11753D01*
Y9254D02*
X455624D01*
Y7754D01*
X455125Y7254D01*
X453625D01*
X803500Y153250D02*
Y156249D01*
X805000D01*
X805500Y155749D01*
Y154749D01*
X805000Y154250D01*
X803500D01*
X804500D02*
X805500Y153250D01*
X806499D02*
X807499D01*
X806999D01*
Y156249D01*
X806499Y155749D01*
X752500Y145750D02*
X749501D01*
Y147250D01*
X750001Y147750D01*
X751001D01*
X751500Y147250D01*
Y145750D01*
Y146750D02*
X752500Y147750D01*
Y150749D02*
Y148749D01*
X750501Y150749D01*
X750001D01*
X749501Y150249D01*
Y149249D01*
X750001Y148749D01*
X837000Y150500D02*
Y153499D01*
X838499D01*
X838999Y152999D01*
Y152000D01*
X838499Y151500D01*
X837000D01*
X837999D02*
X838999Y150500D01*
X839999Y152999D02*
X840499Y153499D01*
X841498D01*
X841998Y152999D01*
Y152500D01*
X841498Y152000D01*
X840998D01*
X841498D01*
X841998Y151500D01*
Y151000D01*
X841498Y150500D01*
X840499D01*
X839999Y151000D01*
X739500Y36000D02*
Y38999D01*
X741000D01*
X741499Y38499D01*
Y37499D01*
X741000Y37000D01*
X739500D01*
X740500D02*
X741499Y36000D01*
X743998D02*
Y38999D01*
X742499Y37499D01*
X744498D01*
X774500Y134250D02*
X777499D01*
Y132750D01*
X776999Y132250D01*
X776000D01*
X775500Y132750D01*
Y134250D01*
Y133250D02*
X774500Y132250D01*
X777499Y129251D02*
Y131251D01*
X776000D01*
X776499Y130251D01*
Y129751D01*
X776000Y129251D01*
X775000D01*
X774500Y129751D01*
Y130751D01*
X775000Y131251D01*
X731250Y60250D02*
X728251D01*
Y61750D01*
X728751Y62249D01*
X729751D01*
X730250Y61750D01*
Y60250D01*
Y61250D02*
X731250Y62249D01*
X728251Y65248D02*
X728751Y64249D01*
X729751Y63249D01*
X730750D01*
X731250Y63749D01*
Y64749D01*
X730750Y65248D01*
X730250D01*
X729751Y64749D01*
Y63249D01*
X798000Y112250D02*
X800999D01*
Y110751D01*
X800499Y110251D01*
X799500D01*
X799000Y110751D01*
Y112250D01*
Y111250D02*
X798000Y110251D01*
X800999Y109251D02*
Y107252D01*
X800499D01*
X798500Y109251D01*
X798000D01*
X883000Y-17250D02*
Y-20249D01*
X881500D01*
X881001Y-19749D01*
Y-18750D01*
X881500Y-18250D01*
X883000D01*
X882000D02*
X881001Y-17250D01*
X880001Y-19749D02*
X879501Y-20249D01*
X878502D01*
X878002Y-19749D01*
Y-19249D01*
X878502Y-18750D01*
X878002Y-18250D01*
Y-17750D01*
X878502Y-17250D01*
X879501D01*
X880001Y-17750D01*
Y-18250D01*
X879501Y-18750D01*
X880001Y-19249D01*
Y-19749D01*
X879501Y-18750D02*
X878502D01*
X834750Y-3750D02*
Y-6749D01*
X833251D01*
X832751Y-6249D01*
Y-5250D01*
X833251Y-4750D01*
X834750D01*
X833750D02*
X832751Y-3750D01*
X831751Y-4250D02*
X831251Y-3750D01*
X830252D01*
X829752Y-4250D01*
Y-6249D01*
X830252Y-6749D01*
X831251D01*
X831751Y-6249D01*
Y-5749D01*
X831251Y-5250D01*
X829752D01*
X925250Y12750D02*
Y9751D01*
X923751D01*
X923251Y10251D01*
Y11250D01*
X923751Y11750D01*
X925250D01*
X924250D02*
X923251Y12750D01*
X922251D02*
X921251D01*
X921751D01*
Y9751D01*
X922251Y10251D01*
X919752D02*
X919252Y9751D01*
X918252D01*
X917752Y10251D01*
Y12250D01*
X918252Y12750D01*
X919252D01*
X919752Y12250D01*
Y10251D01*
X941250Y145000D02*
Y147999D01*
X942749D01*
X943249Y147499D01*
Y146500D01*
X942749Y146000D01*
X941250D01*
X942250D02*
X943249Y145000D01*
X944249D02*
X945249D01*
X944749D01*
Y147999D01*
X944249Y147499D01*
X946748Y145000D02*
X947748D01*
X947248D01*
Y147999D01*
X946748Y147499D01*
X857500Y135750D02*
X860499D01*
Y134250D01*
X859999Y133751D01*
X858999D01*
X858500Y134250D01*
Y135750D01*
Y134750D02*
X857500Y133751D01*
Y132751D02*
Y131751D01*
Y132251D01*
X860499D01*
X859999Y132751D01*
X857500Y128252D02*
Y130252D01*
X859499Y128252D01*
X859999D01*
X860499Y128752D01*
Y129752D01*
X859999Y130252D01*
X884750Y146000D02*
Y148999D01*
X886249D01*
X886749Y148499D01*
Y147500D01*
X886249Y147000D01*
X884750D01*
X885750D02*
X886749Y146000D01*
X887749D02*
X888749D01*
X888249D01*
Y148999D01*
X887749Y148499D01*
X890248D02*
X890748Y148999D01*
X891748D01*
X892248Y148499D01*
Y147999D01*
X891748Y147500D01*
X891248D01*
X891748D01*
X892248Y147000D01*
Y146500D01*
X891748Y146000D01*
X890748D01*
X890248Y146500D01*
X208500Y250250D02*
X211499D01*
Y248750D01*
X210999Y248251D01*
X210000D01*
X209500Y248750D01*
Y250250D01*
Y249250D02*
X208500Y248251D01*
Y247251D02*
Y246251D01*
Y246751D01*
X211499D01*
X210999Y247251D01*
X208500Y243252D02*
X211499D01*
X210000Y244752D01*
Y242752D01*
X851000Y-59500D02*
X853999D01*
Y-60999D01*
X853500Y-61499D01*
X852500D01*
X852000Y-60999D01*
Y-59500D01*
Y-60500D02*
X851000Y-61499D01*
Y-62499D02*
Y-63499D01*
Y-62999D01*
X853999D01*
X853500Y-62499D01*
X853999Y-66997D02*
Y-64998D01*
X852500D01*
X853000Y-65998D01*
Y-66498D01*
X852500Y-66997D01*
X851500D01*
X851000Y-66498D01*
Y-65498D01*
X851500Y-64998D01*
X232750Y217250D02*
Y214251D01*
X231250D01*
X230751Y214751D01*
Y215751D01*
X231250Y216250D01*
X232750D01*
X231750D02*
X230751Y217250D01*
X229751D02*
X228751D01*
X229251D01*
Y214251D01*
X229751Y214751D01*
X225252Y214251D02*
X226252Y214751D01*
X227252Y215751D01*
Y216750D01*
X226752Y217250D01*
X225752D01*
X225252Y216750D01*
Y216250D01*
X225752Y215751D01*
X227252D01*
X180250Y239750D02*
Y236751D01*
X178750D01*
X178251Y237251D01*
Y238251D01*
X178750Y238750D01*
X180250D01*
X179250D02*
X178251Y239750D01*
X177251D02*
X176251D01*
X176751D01*
Y236751D01*
X177251Y237251D01*
X174752Y236751D02*
X172752D01*
Y237251D01*
X174752Y239250D01*
Y239750D01*
X763000Y81750D02*
X765999D01*
Y80251D01*
X765499Y79751D01*
X764500D01*
X764000Y80251D01*
Y81750D01*
Y80750D02*
X763000Y79751D01*
Y78751D02*
Y77751D01*
Y78251D01*
X765999D01*
X765499Y78751D01*
Y76252D02*
X765999Y75752D01*
Y74752D01*
X765499Y74252D01*
X764999D01*
X764500Y74752D01*
X764000Y74252D01*
X763500D01*
X763000Y74752D01*
Y75752D01*
X763500Y76252D01*
X764000D01*
X764500Y75752D01*
X764999Y76252D01*
X765499D01*
X764500Y75752D02*
Y74752D01*
X782000Y-41750D02*
Y-38751D01*
X783500D01*
X784000Y-39251D01*
Y-40250D01*
X783500Y-40750D01*
X782000D01*
X783000D02*
X784000Y-41750D01*
X784999D02*
X785999D01*
X785499D01*
Y-38751D01*
X784999Y-39251D01*
X787498Y-41250D02*
X787998Y-41750D01*
X788998D01*
X789498Y-41250D01*
Y-39251D01*
X788998Y-38751D01*
X787998D01*
X787498Y-39251D01*
Y-39750D01*
X787998Y-40250D01*
X789498D01*
X772250Y-82500D02*
X769251D01*
Y-81000D01*
X769751Y-80500D01*
X770751D01*
X771251Y-81000D01*
Y-82500D01*
Y-81500D02*
X772250Y-80500D01*
Y-77501D02*
Y-79501D01*
X770251Y-77501D01*
X769751D01*
X769251Y-78001D01*
Y-79001D01*
X769751Y-79501D01*
X772250Y-76502D02*
Y-75502D01*
Y-76002D01*
X769251D01*
X769751Y-76502D01*
X511625Y3500D02*
X514624D01*
Y2000D01*
X514124Y1501D01*
X513125D01*
X512625Y2000D01*
Y3500D01*
Y2500D02*
X511625Y1501D01*
Y-1498D02*
Y501D01*
X513624Y-1498D01*
X514124D01*
X514624Y-998D01*
Y1D01*
X514124Y501D01*
Y-2498D02*
X514624Y-2998D01*
Y-3998D01*
X514124Y-4497D01*
X513624D01*
X513125Y-3998D01*
Y-3498D01*
Y-3998D01*
X512625Y-4497D01*
X512125D01*
X511625Y-3998D01*
Y-2998D01*
X512125Y-2498D01*
X486000Y29000D02*
X488999D01*
Y27501D01*
X488499Y27001D01*
X487500D01*
X487000Y27501D01*
Y29000D01*
Y28000D02*
X486000Y27001D01*
Y24002D02*
Y26001D01*
X487999Y24002D01*
X488499D01*
X488999Y24501D01*
Y25501D01*
X488499Y26001D01*
X486000Y21502D02*
X488999D01*
X487500Y23002D01*
Y21003D01*
X188750Y-141000D02*
Y-143999D01*
X187250D01*
X186751Y-143499D01*
Y-142500D01*
X187250Y-142000D01*
X188750D01*
X187750D02*
X186751Y-141000D01*
X183752D02*
X185751D01*
X183752Y-142999D01*
Y-143499D01*
X184251Y-143999D01*
X185251D01*
X185751Y-143499D01*
X180753Y-143999D02*
X182752D01*
Y-142500D01*
X181752Y-142999D01*
X181252D01*
X180753Y-142500D01*
Y-141500D01*
X181252Y-141000D01*
X182252D01*
X182752Y-141500D01*
X374500Y353500D02*
Y356499D01*
X375999D01*
X376499Y355999D01*
Y355000D01*
X375999Y354500D01*
X374500D01*
X375500D02*
X376499Y353500D01*
X379498D02*
X377499D01*
X379498Y355499D01*
Y355999D01*
X378999Y356499D01*
X377999D01*
X377499Y355999D01*
X382497Y356499D02*
X381498Y355999D01*
X380498Y355000D01*
Y354000D01*
X380998Y353500D01*
X381998D01*
X382497Y354000D01*
Y354500D01*
X381998Y355000D01*
X380498D01*
X328250Y364500D02*
X325251D01*
Y365999D01*
X325751Y366499D01*
X326750D01*
X327250Y365999D01*
Y364500D01*
Y365500D02*
X328250Y366499D01*
Y369498D02*
Y367499D01*
X326251Y369498D01*
X325751D01*
X325251Y368999D01*
Y367999D01*
X325751Y367499D01*
X325251Y370498D02*
Y372497D01*
X325751D01*
X327750Y370498D01*
X328250D01*
X494250Y430250D02*
Y433249D01*
X495750D01*
X496249Y432749D01*
Y431749D01*
X495750Y431250D01*
X494250D01*
X495250D02*
X496249Y430250D01*
X499248D02*
X497249D01*
X499248Y432249D01*
Y432749D01*
X498749Y433249D01*
X497749D01*
X497249Y432749D01*
X500248D02*
X500748Y433249D01*
X501748D01*
X502247Y432749D01*
Y432249D01*
X501748Y431749D01*
X502247Y431250D01*
Y430750D01*
X501748Y430250D01*
X500748D01*
X500248Y430750D01*
Y431250D01*
X500748Y431749D01*
X500248Y432249D01*
Y432749D01*
X500748Y431749D02*
X501748D01*
X851750Y458500D02*
Y461499D01*
X853250D01*
X853749Y460999D01*
Y460000D01*
X853250Y459500D01*
X851750D01*
X852750D02*
X853749Y458500D01*
X856748D02*
X854749D01*
X856748Y460499D01*
Y460999D01*
X856249Y461499D01*
X855249D01*
X854749Y460999D01*
X857748Y459000D02*
X858248Y458500D01*
X859248D01*
X859747Y459000D01*
Y460999D01*
X859248Y461499D01*
X858248D01*
X857748Y460999D01*
Y460499D01*
X858248Y460000D01*
X859747D01*
X844750Y328000D02*
Y330999D01*
X846249D01*
X846749Y330499D01*
Y329500D01*
X846249Y329000D01*
X844750D01*
X845750D02*
X846749Y328000D01*
X847749Y330499D02*
X848249Y330999D01*
X849249D01*
X849748Y330499D01*
Y329999D01*
X849249Y329500D01*
X848749D01*
X849249D01*
X849748Y329000D01*
Y328500D01*
X849249Y328000D01*
X848249D01*
X847749Y328500D01*
X850748Y330499D02*
X851248Y330999D01*
X852248D01*
X852747Y330499D01*
Y328500D01*
X852248Y328000D01*
X851248D01*
X850748Y328500D01*
Y330499D01*
X318999Y170499D02*
X317000D01*
Y169000D01*
X318000D01*
X317000D01*
Y167500D01*
X321498D02*
Y170499D01*
X319999Y169000D01*
X321998D01*
X324997Y167500D02*
X322998D01*
X324997Y169499D01*
Y169999D01*
X324497Y170499D01*
X323498D01*
X322998Y169999D01*
X325997Y168000D02*
X326497Y167500D01*
X327497D01*
X327996Y168000D01*
Y169999D01*
X327497Y170499D01*
X326497D01*
X325997Y169999D01*
Y169499D01*
X326497Y169000D01*
X327996D01*
X328996Y167000D02*
X330995D01*
X331995Y167500D02*
Y170499D01*
X333495D01*
X333994Y169999D01*
Y169000D01*
X333495Y168500D01*
X331995D01*
X332995D02*
X333994Y167500D01*
X336993Y169999D02*
X336494Y170499D01*
X335494D01*
X334994Y169999D01*
Y169499D01*
X335494Y169000D01*
X336494D01*
X336993Y168500D01*
Y168000D01*
X336494Y167500D01*
X335494D01*
X334994Y168000D01*
X337993Y170499D02*
X339992D01*
X338993D01*
Y167500D01*
X799000Y413749D02*
Y411250D01*
X799500Y410750D01*
X800499D01*
X800999Y411250D01*
Y413749D01*
X801999Y410750D02*
X802999D01*
X802499D01*
Y413749D01*
X801999Y413249D01*
X744500Y-108251D02*
Y-110750D01*
X745000Y-111250D01*
X745999D01*
X746499Y-110750D01*
Y-108251D01*
X749498Y-111250D02*
X747499D01*
X749498Y-109250D01*
Y-108751D01*
X748998Y-108251D01*
X747999D01*
X747499Y-108751D01*
X644250Y-72751D02*
Y-75250D01*
X644750Y-75750D01*
X645750D01*
X646249Y-75250D01*
Y-72751D01*
X647249Y-73251D02*
X647749Y-72751D01*
X648748D01*
X649248Y-73251D01*
Y-73751D01*
X648748Y-74250D01*
X648249D01*
X648748D01*
X649248Y-74750D01*
Y-75250D01*
X648748Y-75750D01*
X647749D01*
X647249Y-75250D01*
X329750Y444999D02*
Y442500D01*
X330250Y442000D01*
X331250D01*
X331749Y442500D01*
Y444999D01*
X332749Y442000D02*
X334249D01*
X334748Y442500D01*
X334249Y443000D01*
X333249D01*
X332749Y443499D01*
X333249Y443999D01*
X334748D01*
X337248Y442000D02*
X336248D01*
X335748Y442500D01*
Y443499D01*
X336248Y443999D01*
X337248D01*
X337747Y443499D01*
Y443000D01*
X335748D01*
X338747Y443999D02*
Y442000D01*
Y443000D01*
X339247Y443499D01*
X339747Y443999D01*
X340247D01*
X341746Y444999D02*
Y442000D01*
X343246D01*
X343745Y442500D01*
Y443000D01*
X343246Y443499D01*
X341746D01*
X343246D01*
X343745Y443999D01*
Y444499D01*
X343246Y444999D01*
X341746D01*
X344745Y443999D02*
Y442500D01*
X345245Y442000D01*
X346744D01*
Y443999D01*
X348244Y444499D02*
Y443999D01*
X347744D01*
X348744D01*
X348244D01*
Y442500D01*
X348744Y442000D01*
X350743Y444499D02*
Y443999D01*
X350243D01*
X351243D01*
X350743D01*
Y442500D01*
X351243Y442000D01*
X353242D02*
X354242D01*
X354742Y442500D01*
Y443499D01*
X354242Y443999D01*
X353242D01*
X352743Y443499D01*
Y442500D01*
X353242Y442000D01*
X355742D02*
Y443999D01*
X357241D01*
X357741Y443499D01*
Y442000D01*
X338000Y288749D02*
X339999Y285750D01*
Y288749D02*
X338000Y285750D01*
X340999Y285250D02*
X342998D01*
X345997Y288749D02*
X343998D01*
Y287250D01*
X344998D01*
X343998D01*
Y285750D01*
X348497D02*
Y288749D01*
X346997Y287250D01*
X348997D01*
X351996Y285750D02*
X349996D01*
X351996Y287749D01*
Y288249D01*
X351496Y288749D01*
X350496D01*
X349996Y288249D01*
X352995Y286250D02*
X353495Y285750D01*
X354495D01*
X354995Y286250D01*
Y288249D01*
X354495Y288749D01*
X353495D01*
X352995Y288249D01*
Y287749D01*
X353495Y287250D01*
X354995D01*
X94250Y73499D02*
X96249Y70500D01*
Y73499D02*
X94250Y70500D01*
X97249Y70000D02*
X99248D01*
X100248Y73499D02*
Y70500D01*
X101748D01*
X102247Y71000D01*
Y71500D01*
X101748Y72000D01*
X100248D01*
X101748D01*
X102247Y72499D01*
Y72999D01*
X101748Y73499D01*
X100248D01*
X103247Y70500D02*
Y73499D01*
X104247Y72499D01*
X105246Y73499D01*
Y70500D01*
X106246Y73499D02*
Y70500D01*
X107746D01*
X108245Y71000D01*
Y72999D01*
X107746Y73499D01*
X106246D01*
X926500Y68999D02*
X928499Y66000D01*
Y68999D02*
X926500Y66000D01*
X931498Y68499D02*
X930999Y68999D01*
X929999D01*
X929499Y68499D01*
Y67999D01*
X929999Y67499D01*
X930999D01*
X931498Y67000D01*
Y66500D01*
X930999Y66000D01*
X929999D01*
X929499Y66500D01*
X932498Y68999D02*
X934497D01*
X933498D01*
Y66000D01*
X935497D02*
X936497D01*
X935997D01*
Y68999D01*
X935497D01*
X937996Y66000D02*
X938996D01*
X938496D01*
Y67999D01*
X937996D01*
X940496Y66000D02*
Y67999D01*
X941995D01*
X942495Y67499D01*
Y66000D01*
X943494D02*
Y68999D01*
Y67000D02*
X944994Y67999D01*
X943494Y67000D02*
X944994Y66000D01*
X416499Y-50751D02*
X415999Y-50251D01*
X415000D01*
X414500Y-50751D01*
Y-52750D01*
X415000Y-53250D01*
X415999D01*
X416499Y-52750D01*
X417499Y-50751D02*
X417999Y-50251D01*
X418999D01*
X419498Y-50751D01*
Y-51251D01*
X418999Y-51750D01*
X418499D01*
X418999D01*
X419498Y-52250D01*
Y-52750D01*
X418999Y-53250D01*
X417999D01*
X417499Y-52750D01*
X420498Y-50751D02*
X420998Y-50251D01*
X421998D01*
X422497Y-50751D01*
Y-51251D01*
X421998Y-51750D01*
X421498D01*
X421998D01*
X422497Y-52250D01*
Y-52750D01*
X421998Y-53250D01*
X420998D01*
X420498Y-52750D01*
X388999Y-50501D02*
X388500Y-50001D01*
X387500D01*
X387000Y-50501D01*
Y-52500D01*
X387500Y-53000D01*
X388500D01*
X388999Y-52500D01*
X389999Y-50501D02*
X390499Y-50001D01*
X391499D01*
X391998Y-50501D01*
Y-51001D01*
X391499Y-51501D01*
X390999D01*
X391499D01*
X391998Y-52000D01*
Y-52500D01*
X391499Y-53000D01*
X390499D01*
X389999Y-52500D01*
X394498Y-53000D02*
Y-50001D01*
X392998Y-51501D01*
X394997D01*
X380500Y33749D02*
Y31250D01*
X381000Y30750D01*
X382000D01*
X382499Y31250D01*
Y33749D01*
X384999Y30750D02*
Y33749D01*
X383499Y32250D01*
X385498D01*
X869751Y-8749D02*
X870250Y-9249D01*
X871250D01*
X871750Y-8749D01*
Y-6750D01*
X871250Y-6250D01*
X870250D01*
X869751Y-6750D01*
X866752Y-9249D02*
X868751D01*
Y-7750D01*
X867751Y-8249D01*
X867252D01*
X866752Y-7750D01*
Y-6750D01*
X867252Y-6250D01*
X868251D01*
X868751Y-6750D01*
X863753Y-9249D02*
X864752Y-8749D01*
X865752Y-7750D01*
Y-6750D01*
X865252Y-6250D01*
X864252D01*
X863753Y-6750D01*
Y-7250D01*
X864252Y-7750D01*
X865752D01*
X331500Y346249D02*
X333499D01*
X332500D01*
Y343250D01*
X334499D02*
Y346249D01*
X335999D01*
X336498Y345749D01*
Y344749D01*
X335999Y344250D01*
X334499D01*
X337498Y343250D02*
X338498D01*
X337998D01*
Y346249D01*
X337498Y345749D01*
X278750Y7749D02*
X280749D01*
X279750D01*
Y4750D01*
X281749D02*
Y7749D01*
X283249D01*
X283748Y7249D01*
Y6249D01*
X283249Y5750D01*
X281749D01*
X284748Y7249D02*
X285248Y7749D01*
X286248D01*
X286747Y7249D01*
Y6749D01*
X286248Y6249D01*
X285748D01*
X286248D01*
X286747Y5750D01*
Y5250D01*
X286248Y4750D01*
X285248D01*
X284748Y5250D01*
X257500Y24249D02*
X259499D01*
X258500D01*
Y21250D01*
X260499D02*
Y24249D01*
X261999D01*
X262498Y23749D01*
Y22750D01*
X261999Y22250D01*
X260499D01*
X264998Y21250D02*
Y24249D01*
X263498Y22750D01*
X265497D01*
X670250Y186249D02*
X672249D01*
X671250D01*
Y183250D01*
X673249D02*
Y186249D01*
X674749D01*
X675248Y185749D01*
Y184750D01*
X674749Y184250D01*
X673249D01*
X678247Y183250D02*
X676248D01*
X678247Y185249D01*
Y185749D01*
X677748Y186249D01*
X676748D01*
X676248Y185749D01*
X680747Y183250D02*
Y186249D01*
X679247Y184750D01*
X681246D01*
X658000Y209749D02*
X659999D01*
X659000D01*
Y206750D01*
X660999D02*
Y209749D01*
X662498D01*
X662998Y209249D01*
Y208249D01*
X662498Y207750D01*
X660999D01*
X665997Y206750D02*
X663998D01*
X665997Y208749D01*
Y209249D01*
X665498Y209749D01*
X664498D01*
X663998Y209249D01*
X668997Y209749D02*
X666997D01*
Y208249D01*
X667997Y208749D01*
X668497D01*
X668997Y208249D01*
Y207250D01*
X668497Y206750D01*
X667497D01*
X666997Y207250D01*
X672000Y225749D02*
X673999D01*
X673000D01*
Y222750D01*
X674999D02*
Y225749D01*
X676498D01*
X676998Y225249D01*
Y224249D01*
X676498Y223750D01*
X674999D01*
X679997Y222750D02*
X677998D01*
X679997Y224749D01*
Y225249D01*
X679498Y225749D01*
X678498D01*
X677998Y225249D01*
X682996Y225749D02*
X681997Y225249D01*
X680997Y224249D01*
Y223250D01*
X681497Y222750D01*
X682497D01*
X682996Y223250D01*
Y223750D01*
X682497Y224249D01*
X680997D01*
X656750Y244999D02*
X658749D01*
X657750D01*
Y242000D01*
X659749D02*
Y244999D01*
X661248D01*
X661748Y244499D01*
Y243500D01*
X661248Y243000D01*
X659749D01*
X664747Y242000D02*
X662748D01*
X664747Y243999D01*
Y244499D01*
X664248Y244999D01*
X663248D01*
X662748Y244499D01*
X665747Y244999D02*
X667746D01*
Y244499D01*
X665747Y242500D01*
Y242000D01*
X663500Y262499D02*
X665499D01*
X664500D01*
Y259500D01*
X666499D02*
Y262499D01*
X667999D01*
X668498Y261999D01*
Y261000D01*
X667999Y260500D01*
X666499D01*
X671497Y259500D02*
X669498D01*
X671497Y261499D01*
Y261999D01*
X670998Y262499D01*
X669998D01*
X669498Y261999D01*
X672497D02*
X672997Y262499D01*
X673997D01*
X674496Y261999D01*
Y261499D01*
X673997Y261000D01*
X674496Y260500D01*
Y260000D01*
X673997Y259500D01*
X672997D01*
X672497Y260000D01*
Y260500D01*
X672997Y261000D01*
X672497Y261499D01*
Y261999D01*
X672997Y261000D02*
X673997D01*
X656000Y273749D02*
X657999D01*
X657000D01*
Y270750D01*
X658999D02*
Y273749D01*
X660499D01*
X660998Y273249D01*
Y272250D01*
X660499Y271750D01*
X658999D01*
X663997Y270750D02*
X661998D01*
X663997Y272749D01*
Y273249D01*
X663498Y273749D01*
X662498D01*
X661998Y273249D01*
X664997Y271250D02*
X665497Y270750D01*
X666497D01*
X666997Y271250D01*
Y273249D01*
X666497Y273749D01*
X665497D01*
X664997Y273249D01*
Y272749D01*
X665497Y272250D01*
X666997D01*
X651500Y286999D02*
X653499D01*
X652500D01*
Y284000D01*
X654499D02*
Y286999D01*
X655999D01*
X656498Y286499D01*
Y285499D01*
X655999Y285000D01*
X654499D01*
X657498Y286499D02*
X657998Y286999D01*
X658998D01*
X659497Y286499D01*
Y285999D01*
X658998Y285499D01*
X658498D01*
X658998D01*
X659497Y285000D01*
Y284500D01*
X658998Y284000D01*
X657998D01*
X657498Y284500D01*
X660497Y286499D02*
X660997Y286999D01*
X661997D01*
X662496Y286499D01*
Y284500D01*
X661997Y284000D01*
X660997D01*
X660497Y284500D01*
Y286499D01*
X672000Y314249D02*
X673999D01*
X673000D01*
Y311250D01*
X674999D02*
Y314249D01*
X676499D01*
X676998Y313749D01*
Y312750D01*
X676499Y312250D01*
X674999D01*
X677998Y313749D02*
X678498Y314249D01*
X679498D01*
X679997Y313749D01*
Y313249D01*
X679498Y312750D01*
X678998D01*
X679498D01*
X679997Y312250D01*
Y311750D01*
X679498Y311250D01*
X678498D01*
X677998Y311750D01*
X682997Y311250D02*
X680997D01*
X682997Y313249D01*
Y313749D01*
X682497Y314249D01*
X681497D01*
X680997Y313749D01*
X672000Y327874D02*
X673999D01*
X673000D01*
Y324875D01*
X674999D02*
Y327874D01*
X676499D01*
X676998Y327374D01*
Y326375D01*
X676499Y325875D01*
X674999D01*
X677998Y327374D02*
X678498Y327874D01*
X679498D01*
X679997Y327374D01*
Y326875D01*
X679498Y326375D01*
X678998D01*
X679498D01*
X679997Y325875D01*
Y325375D01*
X679498Y324875D01*
X678498D01*
X677998Y325375D01*
X680997Y327374D02*
X681497Y327874D01*
X682497D01*
X682997Y327374D01*
Y326875D01*
X682497Y326375D01*
X681997D01*
X682497D01*
X682997Y325875D01*
Y325375D01*
X682497Y324875D01*
X681497D01*
X680997Y325375D01*
X672000Y341499D02*
X673999D01*
X673000D01*
Y338500D01*
X674999D02*
Y341499D01*
X676499D01*
X676998Y340999D01*
Y340000D01*
X676499Y339500D01*
X674999D01*
X677998Y340999D02*
X678498Y341499D01*
X679498D01*
X679997Y340999D01*
Y340499D01*
X679498Y340000D01*
X678998D01*
X679498D01*
X679997Y339500D01*
Y339000D01*
X679498Y338500D01*
X678498D01*
X677998Y339000D01*
X682497Y338500D02*
Y341499D01*
X680997Y340000D01*
X682997D01*
X672000Y355624D02*
X673999D01*
X673000D01*
Y352625D01*
X674999D02*
Y355624D01*
X676499D01*
X676998Y355124D01*
Y354125D01*
X676499Y353625D01*
X674999D01*
X677998Y355124D02*
X678498Y355624D01*
X679498D01*
X679997Y355124D01*
Y354625D01*
X679498Y354125D01*
X678998D01*
X679498D01*
X679997Y353625D01*
Y353125D01*
X679498Y352625D01*
X678498D01*
X677998Y353125D01*
X682997Y355624D02*
X680997D01*
Y354125D01*
X681997Y354625D01*
X682497D01*
X682997Y354125D01*
Y353125D01*
X682497Y352625D01*
X681497D01*
X680997Y353125D01*
X672000Y369999D02*
X673999D01*
X673000D01*
Y367000D01*
X674999D02*
Y369999D01*
X676499D01*
X676998Y369499D01*
Y368500D01*
X676499Y368000D01*
X674999D01*
X677998Y369499D02*
X678498Y369999D01*
X679498D01*
X679997Y369499D01*
Y369000D01*
X679498Y368500D01*
X678998D01*
X679498D01*
X679997Y368000D01*
Y367500D01*
X679498Y367000D01*
X678498D01*
X677998Y367500D01*
X682997Y369999D02*
X681997Y369499D01*
X680997Y368500D01*
Y367500D01*
X681497Y367000D01*
X682497D01*
X682997Y367500D01*
Y368000D01*
X682497Y368500D01*
X680997D01*
X168501Y340500D02*
Y342499D01*
Y341500D01*
X171500D01*
Y343499D02*
X168501D01*
Y344999D01*
X169001Y345498D01*
X170000D01*
X170500Y344999D01*
Y343499D01*
X171500Y347998D02*
X168501D01*
X170000Y346498D01*
Y348497D01*
X171500Y349497D02*
Y350497D01*
Y349997D01*
X168501D01*
X169001Y349497D01*
X201001Y322500D02*
Y324499D01*
Y323500D01*
X204000D01*
Y325499D02*
X201001D01*
Y326998D01*
X201501Y327498D01*
X202500D01*
X203000Y326998D01*
Y325499D01*
X204000Y329998D02*
X201001D01*
X202500Y328498D01*
Y330497D01*
X204000Y333496D02*
Y331497D01*
X202001Y333496D01*
X201501D01*
X201001Y332997D01*
Y331997D01*
X201501Y331497D01*
X189751Y356574D02*
Y358574D01*
Y357574D01*
X192750D01*
Y359573D02*
X189751D01*
Y361073D01*
X190251Y361573D01*
X191251D01*
X191751Y361073D01*
Y359573D01*
X192750Y364072D02*
X189751D01*
X191251Y362572D01*
Y364572D01*
X190251Y365571D02*
X189751Y366071D01*
Y367071D01*
X190251Y367571D01*
X190751D01*
X191251Y367071D01*
Y366571D01*
Y367071D01*
X191751Y367571D01*
X192251D01*
X192750Y367071D01*
Y366071D01*
X192251Y365571D01*
X679500Y300750D02*
X682499D01*
Y299251D01*
X681999Y298751D01*
X681000D01*
X680500Y299251D01*
Y300750D01*
Y299750D02*
X679500Y298751D01*
Y295752D02*
Y297751D01*
X681499Y295752D01*
X681999D01*
X682499Y296252D01*
Y297251D01*
X681999Y297751D01*
X679500Y292753D02*
Y294752D01*
X681499Y292753D01*
X681999D01*
X682499Y293252D01*
Y294252D01*
X681999Y294752D01*
X762596Y303226D02*
Y306225D01*
X764096D01*
X764595Y305725D01*
Y304725D01*
X764096Y304226D01*
X762596D01*
X763596D02*
X764595Y303226D01*
X765595Y305725D02*
X766095Y306225D01*
X767095D01*
X767594Y305725D01*
Y305225D01*
X767095Y304725D01*
X766595D01*
X767095D01*
X767594Y304226D01*
Y303726D01*
X767095Y303226D01*
X766095D01*
X765595Y303726D01*
X770593Y306225D02*
X769594Y305725D01*
X768594Y304725D01*
Y303726D01*
X769094Y303226D01*
X770094D01*
X770593Y303726D01*
Y304226D01*
X770094Y304725D01*
X768594D01*
X243250Y366250D02*
X246249D01*
Y364751D01*
X245749Y364251D01*
X244750D01*
X244250Y364751D01*
Y366250D01*
Y365250D02*
X243250Y364251D01*
X245749Y363251D02*
X246249Y362751D01*
Y361752D01*
X245749Y361252D01*
X245249D01*
X244750Y361752D01*
Y362251D01*
Y361752D01*
X244250Y361252D01*
X243750D01*
X243250Y361752D01*
Y362751D01*
X243750Y363251D01*
X246249Y360252D02*
Y358253D01*
X245749D01*
X243750Y360252D01*
X243250D01*
X242250Y348500D02*
X245249D01*
Y347001D01*
X244749Y346501D01*
X243750D01*
X243250Y347001D01*
Y348500D01*
Y347500D02*
X242250Y346501D01*
X244749Y345501D02*
X245249Y345001D01*
Y344002D01*
X244749Y343502D01*
X244249D01*
X243750Y344002D01*
Y344501D01*
Y344002D01*
X243250Y343502D01*
X242750D01*
X242250Y344002D01*
Y345001D01*
X242750Y345501D01*
X244749Y342502D02*
X245249Y342002D01*
Y341002D01*
X244749Y340503D01*
X244249D01*
X243750Y341002D01*
X243250Y340503D01*
X242750D01*
X242250Y341002D01*
Y342002D01*
X242750Y342502D01*
X243250D01*
X243750Y342002D01*
X244249Y342502D01*
X244749D01*
X243750Y342002D02*
Y341002D01*
X169750Y297750D02*
X166751D01*
Y299249D01*
X167251Y299749D01*
X168251D01*
X168750Y299249D01*
Y297750D01*
Y298750D02*
X169750Y299749D01*
X167251Y300749D02*
X166751Y301249D01*
Y302248D01*
X167251Y302748D01*
X167751D01*
X168251Y302248D01*
Y301749D01*
Y302248D01*
X168750Y302748D01*
X169250D01*
X169750Y302248D01*
Y301249D01*
X169250Y300749D01*
Y303748D02*
X169750Y304248D01*
Y305247D01*
X169250Y305747D01*
X167251D01*
X166751Y305247D01*
Y304248D01*
X167251Y303748D01*
X167751D01*
X168251Y304248D01*
Y305747D01*
X565750Y-68001D02*
Y-70500D01*
X566250Y-71000D01*
X567249D01*
X567749Y-70500D01*
Y-68001D01*
X570748D02*
X568749D01*
Y-69500D01*
X569749Y-69001D01*
X570248D01*
X570748Y-69500D01*
Y-70500D01*
X570248Y-71000D01*
X569249D01*
X568749Y-70500D01*
X826501Y140001D02*
X827001Y139501D01*
X828000D01*
X828500Y140001D01*
Y142000D01*
X828000Y142500D01*
X827001D01*
X826501Y142000D01*
X823502Y139501D02*
X825501D01*
Y141000D01*
X824501Y140501D01*
X824001D01*
X823502Y141000D01*
Y142000D01*
X824001Y142500D01*
X825001D01*
X825501Y142000D01*
X821003Y142500D02*
Y139501D01*
X822502Y141000D01*
X820503D01*
X227167Y-6501D02*
X229166D01*
X228166D01*
Y-9500D01*
X230166D02*
Y-6501D01*
X231665D01*
X232165Y-7001D01*
Y-8001D01*
X231665Y-8500D01*
X230166D01*
X235164Y-6501D02*
X233165D01*
Y-8001D01*
X234164Y-7501D01*
X234664D01*
X235164Y-8001D01*
Y-9000D01*
X234664Y-9500D01*
X233664D01*
X233165Y-9000D01*
X118251Y366949D02*
Y365950D01*
Y366450D01*
X120750D01*
X121250Y365950D01*
Y365450D01*
X120750Y364950D01*
X118251Y369948D02*
Y367949D01*
X119750D01*
X119251Y368949D01*
Y369449D01*
X119750Y369948D01*
X120750D01*
X121250Y369449D01*
Y368449D01*
X120750Y367949D01*
M02*
