G04 Layer_Color=16711935*
%FSLAX44Y44*%
%MOMM*%
G71*
G01*
G75*
%ADD107C,1.2032*%
%ADD140R,2.0032X2.0032*%
%ADD141C,2.0032*%
%ADD142R,1.7532X1.7532*%
%ADD143C,1.7532*%
%ADD144R,1.7232X1.7232*%
%ADD145C,1.7232*%
%ADD146R,1.7532X1.7532*%
%ADD147C,1.6032*%
%ADD148R,1.6032X1.6032*%
%ADD149R,1.8032X1.8032*%
%ADD150C,1.8032*%
%ADD151C,0.7032*%
D107*
X837500Y-48500D02*
D03*
X238000Y380500D02*
D03*
X233500Y434000D02*
D03*
Y420250D02*
D03*
Y448250D02*
D03*
Y462500D02*
D03*
X285500Y346000D02*
D03*
X157750Y368250D02*
D03*
X92000Y365750D02*
D03*
X98000Y351000D02*
D03*
X108750Y386750D02*
D03*
X68000Y349500D02*
D03*
X51250Y349750D02*
D03*
X324000Y498000D02*
D03*
X677500Y508500D02*
D03*
X655000Y504500D02*
D03*
X108750Y406000D02*
D03*
X294750Y263500D02*
D03*
X109250Y431250D02*
D03*
X536500Y434250D02*
D03*
X579500Y419750D02*
D03*
X590500Y409000D02*
D03*
X605000Y416750D02*
D03*
X621500Y414250D02*
D03*
X705750Y424750D02*
D03*
X690750Y424500D02*
D03*
X385967Y157000D02*
D03*
X403250Y162750D02*
D03*
X268250Y175750D02*
D03*
X810500Y474250D02*
D03*
X778250Y416500D02*
D03*
X770500Y463250D02*
D03*
X419000Y391500D02*
D03*
X722250Y87250D02*
D03*
X726250Y143750D02*
D03*
X714750Y133750D02*
D03*
X718250Y116500D02*
D03*
X687000Y103000D02*
D03*
X716250Y101750D02*
D03*
X702000Y103000D02*
D03*
X672500Y113500D02*
D03*
X927000Y153250D02*
D03*
X447750Y177000D02*
D03*
X789041Y163267D02*
D03*
X786040Y146766D02*
D03*
X822250Y145750D02*
D03*
X822500Y164000D02*
D03*
X610000Y51500D02*
D03*
X651000Y55000D02*
D03*
X637250Y55500D02*
D03*
X366750Y-72500D02*
D03*
X11750Y84750D02*
D03*
X24500Y64250D02*
D03*
X24750Y51250D02*
D03*
X24250Y37000D02*
D03*
X356250Y-88750D02*
D03*
X443500Y40500D02*
D03*
X529000Y-57750D02*
D03*
X441250Y-59250D02*
D03*
X470250Y-60000D02*
D03*
X495500Y-59500D02*
D03*
X643750Y-12000D02*
D03*
X565500Y-89750D02*
D03*
X608500Y-15000D02*
D03*
X783000Y370250D02*
D03*
X772790Y392278D02*
D03*
X531500Y127750D02*
D03*
X516000Y126500D02*
D03*
X572750Y146500D02*
D03*
X563530Y156266D02*
D03*
X839250Y127250D02*
D03*
X758750Y162500D02*
D03*
X743039Y162767D02*
D03*
X888000Y-25750D02*
D03*
X741750Y1750D02*
D03*
X776250Y2000D02*
D03*
X757750Y2250D02*
D03*
X911500Y151750D02*
D03*
X856250Y-18500D02*
D03*
X800000Y2500D02*
D03*
X190500Y264250D02*
D03*
X43500Y249000D02*
D03*
X776750Y330000D02*
D03*
X776000Y345250D02*
D03*
X677750Y214500D02*
D03*
X667500Y171500D02*
D03*
X669750Y158750D02*
D03*
X660750Y149000D02*
D03*
X670000Y251750D02*
D03*
X676750Y237250D02*
D03*
X677750Y198750D02*
D03*
X857000Y381250D02*
D03*
X861750Y367250D02*
D03*
X852000Y412500D02*
D03*
X641250Y348750D02*
D03*
X365750Y279000D02*
D03*
X389750Y350250D02*
D03*
X135500Y107250D02*
D03*
X846000Y306500D02*
D03*
X847250Y323500D02*
D03*
X643750Y154500D02*
D03*
X492250Y21250D02*
D03*
X164750Y-122750D02*
D03*
X385000Y53000D02*
D03*
X247000Y33250D02*
D03*
X302750Y120000D02*
D03*
X329000Y161000D02*
D03*
X283000Y198000D02*
D03*
X285250Y216000D02*
D03*
X289000Y238000D02*
D03*
X639500Y363000D02*
D03*
X648000Y376125D02*
D03*
X618000Y383750D02*
D03*
X567750Y379500D02*
D03*
X317250Y356250D02*
D03*
X329750Y344500D02*
D03*
X304250Y299500D02*
D03*
X305000Y333250D02*
D03*
X299250Y353000D02*
D03*
X155750Y46250D02*
D03*
X183000Y-8500D02*
D03*
X129000D02*
D03*
X103750D02*
D03*
X130500Y93250D02*
D03*
X160750Y70750D02*
D03*
X159250Y95000D02*
D03*
X167000Y159000D02*
D03*
X61000Y249750D02*
D03*
X92500Y249000D02*
D03*
X76750Y249250D02*
D03*
X168500Y145500D02*
D03*
X147000Y153500D02*
D03*
X125000Y167750D02*
D03*
X118750Y249250D02*
D03*
X92250Y211250D02*
D03*
X33750Y237500D02*
D03*
X24000Y249500D02*
D03*
X104250Y240500D02*
D03*
X296000Y431500D02*
D03*
X290500Y417250D02*
D03*
X164750Y205000D02*
D03*
X228000Y202000D02*
D03*
X565750Y414500D02*
D03*
X554500Y427250D02*
D03*
X542500Y461250D02*
D03*
X532000Y469500D02*
D03*
X530250Y447750D02*
D03*
X531250Y417000D02*
D03*
X497750Y457000D02*
D03*
X463500Y431750D02*
D03*
X400250Y185250D02*
D03*
X350000Y-35500D02*
D03*
X167000Y-8500D02*
D03*
X151000D02*
D03*
X158750Y-30500D02*
D03*
X129000Y234000D02*
D03*
X495250Y56000D02*
D03*
X510250D02*
D03*
X525500D02*
D03*
X590250Y43750D02*
D03*
X540000Y56000D02*
D03*
X555750Y55500D02*
D03*
X572000Y55000D02*
D03*
X788250Y486000D02*
D03*
X907750Y200750D02*
D03*
X742250Y493750D02*
D03*
X733500Y42250D02*
D03*
X110500Y454250D02*
D03*
X627750Y-90500D02*
D03*
X717000Y3500D02*
D03*
X721250Y-131250D02*
D03*
X723250Y-57000D02*
D03*
X769000Y-102500D02*
D03*
X873250Y279000D02*
D03*
X889500Y279500D02*
D03*
X853500Y463750D02*
D03*
X91900Y90500D02*
D03*
X673500Y-89750D02*
D03*
D140*
X478300Y-96000D02*
D03*
X435250Y-102500D02*
D03*
D141*
X503700Y-96000D02*
D03*
X409850Y-102500D02*
D03*
D142*
X756700Y219600D02*
D03*
X26750Y14000D02*
D03*
X33700Y299500D02*
D03*
X34100Y327750D02*
D03*
X406800Y77250D02*
D03*
X571500Y80750D02*
D03*
X406900Y104500D02*
D03*
X351400Y493750D02*
D03*
X708850Y477625D02*
D03*
Y447250D02*
D03*
D143*
X782100Y219600D02*
D03*
X807500D02*
D03*
X832900D02*
D03*
X858300D02*
D03*
X883700D02*
D03*
X756700Y245000D02*
D03*
X782100D02*
D03*
X807500D02*
D03*
X832900D02*
D03*
X858300D02*
D03*
X883700D02*
D03*
X204550Y14000D02*
D03*
X179150D02*
D03*
X153750D02*
D03*
X128350D02*
D03*
X102950D02*
D03*
X77550D02*
D03*
X52150D02*
D03*
X889750Y432000D02*
D03*
Y406600D02*
D03*
Y381200D02*
D03*
Y355800D02*
D03*
Y330400D02*
D03*
X752000Y313450D02*
D03*
Y338850D02*
D03*
Y364250D02*
D03*
Y389650D02*
D03*
Y415050D02*
D03*
X59100Y299500D02*
D03*
X84500D02*
D03*
X109900D02*
D03*
X135300D02*
D03*
X33700Y274100D02*
D03*
X59100D02*
D03*
X84500D02*
D03*
X109900D02*
D03*
X135300D02*
D03*
X135700Y327750D02*
D03*
X110300D02*
D03*
X84900D02*
D03*
X59500D02*
D03*
X533800Y77250D02*
D03*
X508400D02*
D03*
X483000D02*
D03*
X457600D02*
D03*
X432200D02*
D03*
X698500Y80750D02*
D03*
X673100D02*
D03*
X647700D02*
D03*
X622300D02*
D03*
X596900D02*
D03*
X533900Y104500D02*
D03*
X508500D02*
D03*
X483100D02*
D03*
X457700D02*
D03*
X432300D02*
D03*
X189750Y187250D02*
D03*
Y161850D02*
D03*
Y136450D02*
D03*
Y111050D02*
D03*
Y85650D02*
D03*
X478400Y493750D02*
D03*
X453000D02*
D03*
X427600D02*
D03*
X402200D02*
D03*
X376800D02*
D03*
X581850Y477625D02*
D03*
X607250D02*
D03*
X632650D02*
D03*
X658050D02*
D03*
X683450D02*
D03*
X581850Y447250D02*
D03*
X607250D02*
D03*
X632650D02*
D03*
X658050D02*
D03*
X683450D02*
D03*
X261750Y402650D02*
D03*
Y377250D02*
D03*
Y351850D02*
D03*
Y326450D02*
D03*
Y301050D02*
D03*
Y275650D02*
D03*
Y250250D02*
D03*
Y224850D02*
D03*
Y199450D02*
D03*
X703250Y171950D02*
D03*
Y197350D02*
D03*
Y222750D02*
D03*
Y248150D02*
D03*
Y273550D02*
D03*
Y298950D02*
D03*
Y324350D02*
D03*
X136500Y379700D02*
D03*
Y405100D02*
D03*
Y430500D02*
D03*
Y455900D02*
D03*
X166350Y399000D02*
D03*
Y424400D02*
D03*
Y449800D02*
D03*
Y475200D02*
D03*
X191750Y399000D02*
D03*
Y424400D02*
D03*
Y449800D02*
D03*
D144*
X883700Y191500D02*
D03*
X670300Y-114750D02*
D03*
X684800Y10750D02*
D03*
D145*
X858300Y191500D02*
D03*
X832900D02*
D03*
X807500D02*
D03*
X782100D02*
D03*
X756700D02*
D03*
X543300Y-114750D02*
D03*
X568700D02*
D03*
X594100D02*
D03*
X619500D02*
D03*
X644900D02*
D03*
X557800Y10750D02*
D03*
X583200D02*
D03*
X608600D02*
D03*
X634000D02*
D03*
X659400D02*
D03*
D146*
X889750Y305000D02*
D03*
X752000Y440450D02*
D03*
X189750Y60250D02*
D03*
X261750Y428050D02*
D03*
X703250Y349750D02*
D03*
X136500Y481300D02*
D03*
X191750Y475200D02*
D03*
D147*
X806600Y-21000D02*
D03*
X781200D02*
D03*
X832000D02*
D03*
X623250Y112250D02*
D03*
X597850D02*
D03*
X648650D02*
D03*
D148*
X755800Y-21000D02*
D03*
X572450Y112250D02*
D03*
D149*
X704450Y46250D02*
D03*
D150*
X679050D02*
D03*
D151*
X567250Y-48750D02*
D03*
X556250D02*
D03*
X824000Y388750D02*
D03*
X813000D02*
D03*
X824000Y399750D02*
D03*
X813000D02*
D03*
M02*
