G04 Layer_Color=16711935*
%FSLAX44Y44*%
%MOMM*%
G71*
G01*
G75*
%ADD80C,0.1000*%
%ADD85C,0.0500*%
D80*
X748250Y-169250D02*
X868250D01*
D85*
X676170Y-162370D02*
Y-159371D01*
X677670D01*
X678169Y-159871D01*
Y-160871D01*
X677670Y-161371D01*
X676170D01*
X681168Y-159871D02*
X680669Y-159371D01*
X679669D01*
X679169Y-159871D01*
Y-161870D01*
X679669Y-162370D01*
X680669D01*
X681168Y-161870D01*
X682168Y-159371D02*
Y-162370D01*
X683668D01*
X684167Y-161870D01*
Y-161371D01*
X683668Y-160871D01*
X682168D01*
X683668D01*
X684167Y-160371D01*
Y-159871D01*
X683668Y-159371D01*
X682168D01*
X690165D02*
X688166D01*
Y-162370D01*
X690165D01*
X688166Y-160871D02*
X689166D01*
X693165Y-159371D02*
Y-162370D01*
X691665D01*
X691165Y-161870D01*
Y-160871D01*
X691665Y-160371D01*
X693165D01*
X695164Y-163370D02*
X695664D01*
X696164Y-162870D01*
Y-160371D01*
X694664D01*
X694164Y-160871D01*
Y-161870D01*
X694664Y-162370D01*
X696164D01*
X698663D02*
X697663D01*
X697163Y-161870D01*
Y-160871D01*
X697663Y-160371D01*
X698663D01*
X699163Y-160871D01*
Y-161371D01*
X697163D01*
M02*
