G04 Layer_Color=16711935*
%FSLAX44Y44*%
%MOMM*%
G71*
G01*
G75*
%ADD80C,0.1000*%
%ADD85C,0.0500*%
D80*
X573250Y-42250D02*
G03*
X573250Y-42250I-5000J0D01*
G01*
X811750Y406000D02*
G03*
X811750Y406000I-5000J0D01*
G01*
X467000Y328250D02*
G03*
X467000Y328250I-5000J0D01*
G01*
X218750Y285000D02*
G03*
X218750Y285000I-5000J0D01*
G01*
X863250Y41250D02*
G03*
X863250Y41250I-5000J0D01*
G01*
X465600Y-127750D02*
Y-70600D01*
X516400D01*
Y-127750D02*
Y-70600D01*
X465600Y-127750D02*
X516400D01*
X524250Y-20250D02*
X538750D01*
X524250Y-42250D02*
X538750D01*
Y-20250D01*
X524250Y-42250D02*
Y-20250D01*
X546250Y-33250D02*
X577250D01*
X546250Y-64250D02*
X577250D01*
Y-33250D01*
X546250Y-64250D02*
Y-33250D01*
X586000Y-41500D02*
X600500D01*
X586000Y-63500D02*
X600500D01*
Y-41500D01*
X586000Y-63500D02*
Y-41500D01*
X579700Y-73600D02*
X596300D01*
X579700Y-86400D02*
X596300D01*
X579700D02*
Y-73600D01*
X596300Y-86400D02*
Y-73600D01*
X728250Y-125750D02*
X745750D01*
X728250Y-95750D02*
X745750D01*
Y-125750D02*
Y-95750D01*
X728250Y-125750D02*
Y-95750D01*
X693750Y-127000D02*
Y-105000D01*
X708250Y-127000D02*
Y-105000D01*
X693750Y-127000D02*
X708250D01*
X693750Y-105000D02*
X708250D01*
X683500Y-149750D02*
X705500D01*
X683500Y-135250D02*
X705500D01*
Y-149750D02*
Y-135250D01*
X683500Y-149750D02*
Y-135250D01*
X737850Y-132650D02*
X744150D01*
X737850Y-129350D02*
X744150D01*
Y-132650D02*
Y-129350D01*
X737850Y-132650D02*
Y-129350D01*
X729250Y-87250D02*
X751250D01*
X729250Y-72750D02*
X751250D01*
Y-87250D02*
Y-72750D01*
X729250Y-87250D02*
Y-72750D01*
X694500Y-87500D02*
X716500D01*
X694500Y-73000D02*
X716500D01*
Y-87500D02*
Y-73000D01*
X694500Y-87500D02*
Y-73000D01*
X153250Y-73500D02*
X175250D01*
X153250Y-87000D02*
X175250D01*
X153250D02*
Y-73500D01*
X175250Y-87000D02*
Y-73500D01*
X153250Y-56250D02*
X175250D01*
X153250Y-69750D02*
X175250D01*
X153250D02*
Y-56250D01*
X175250Y-69750D02*
Y-56250D01*
X153250Y-39000D02*
X175250D01*
X153250Y-52500D02*
X175250D01*
X153250D02*
Y-39000D01*
X175250Y-52500D02*
Y-39000D01*
X898300Y206900D02*
Y257700D01*
X742100Y206900D02*
X898300D01*
X742100D02*
Y257700D01*
X898300D01*
X742100Y203950D02*
X742101Y179054D01*
X898300Y203950D02*
X898301Y179054D01*
X742100Y203946D02*
X898300D01*
X742101Y179054D02*
X898301D01*
X898000Y51250D02*
Y83250D01*
X948000Y51250D02*
Y83250D01*
X898000D02*
X948000D01*
X898000Y51250D02*
X948000D01*
X459500Y29500D02*
X481500D01*
X459500Y16000D02*
X481500D01*
X459500D02*
Y29500D01*
X481500Y16000D02*
Y29500D01*
X485125Y-47500D02*
X507125D01*
X485125Y-33000D02*
X507125D01*
Y-47500D02*
Y-33000D01*
X485125Y-47500D02*
Y-33000D01*
X456125Y-33000D02*
X478125D01*
X456125Y-47500D02*
X478125D01*
X456125D02*
Y-33000D01*
X478125Y-47500D02*
Y-33000D01*
X463125Y-26250D02*
X481125D01*
X463125Y4750D02*
X481125D01*
Y-26250D02*
Y4750D01*
X463125Y-26250D02*
Y4750D01*
X509125Y-20750D02*
Y1250D01*
X495625Y-20750D02*
Y1250D01*
X509125D01*
X495625Y-20750D02*
X509125D01*
X416250Y-47500D02*
Y-33000D01*
X438250Y-47500D02*
Y-33000D01*
X416250D02*
X438250D01*
X416250Y-47500D02*
X438250D01*
X387250D02*
Y-33000D01*
X409250Y-47500D02*
Y-33000D01*
X387250D02*
X409250D01*
X387250Y-47500D02*
X409250D01*
X446250Y-6500D02*
Y30500D01*
X379250Y-6500D02*
Y30500D01*
X446250D01*
X379250Y-6500D02*
X446250D01*
X447950Y-127900D02*
Y-70750D01*
X397150Y-127900D02*
X447950D01*
X397150D02*
Y-70750D01*
X447950D01*
X528701Y-127196D02*
X684901D01*
X528700Y-102304D02*
X684900D01*
Y-102300D02*
X684901Y-127196D01*
X528700Y-102300D02*
X528701Y-127196D01*
X531750Y-87000D02*
Y-72500D01*
X553750Y-87000D02*
Y-72500D01*
X531750D02*
X553750D01*
X531750Y-87000D02*
X553750D01*
X549000Y-24250D02*
Y-9750D01*
X571000Y-24250D02*
Y-9750D01*
X549000D02*
X571000D01*
X549000Y-24250D02*
X571000D01*
X731500Y-152150D02*
Y-139350D01*
X748101Y-152150D02*
Y-139350D01*
X731500D02*
X748101D01*
X731500Y-152150D02*
X748101D01*
X644050Y-37650D02*
Y-24850D01*
X627450Y-37650D02*
Y-24850D01*
Y-37650D02*
X644050D01*
X627450Y-24850D02*
X644050D01*
X635000Y-73750D02*
Y-51750D01*
X620500Y-73750D02*
Y-51750D01*
X635000D01*
X620500Y-73750D02*
X635000D01*
X668745Y-74000D02*
Y-52000D01*
X683245Y-74000D02*
Y-52000D01*
X668745Y-74000D02*
X683245D01*
X668745Y-52000D02*
X683245D01*
X697515Y-52457D02*
Y-30457D01*
X712015Y-52457D02*
Y-30457D01*
X697515Y-52457D02*
X712015D01*
X697515Y-30457D02*
X712015D01*
X665995Y-28000D02*
X687995D01*
X665995Y-42500D02*
X687995D01*
X665995D02*
Y-28000D01*
X687995Y-42500D02*
Y-28000D01*
X248750Y19500D02*
X270750D01*
X248750Y6000D02*
X270750D01*
X248750D02*
Y19500D01*
X270750Y6000D02*
Y19500D01*
X218150Y1950D02*
Y26050D01*
X13150Y1950D02*
X218150D01*
X13150D02*
Y26050D01*
X218150D01*
X207000Y143250D02*
X267000D01*
X207000Y83250D02*
X267000D01*
Y143250D01*
X207000Y83250D02*
Y143250D01*
X877700Y289750D02*
X901800D01*
Y447250D01*
X877700D02*
X901800D01*
X877700Y289750D02*
Y447250D01*
X837750Y339250D02*
Y361250D01*
X851250Y339250D02*
Y361250D01*
X837750Y339250D02*
X851250D01*
X837750Y361250D02*
X851250D01*
X797750Y373500D02*
X839250D01*
X797750Y415000D02*
X839250D01*
Y373500D02*
Y415000D01*
X797750Y373500D02*
Y415000D01*
X739950Y455700D02*
X764050D01*
X739950Y298200D02*
Y455700D01*
Y298200D02*
X764050D01*
Y455700D01*
X858250Y427250D02*
Y449250D01*
X844750Y427250D02*
Y449250D01*
X858250D01*
X844750Y427250D02*
X858250D01*
X821500Y467000D02*
Y481500D01*
X843500Y467000D02*
Y481500D01*
X821500D02*
X843500D01*
X821500Y467000D02*
X843500D01*
X782000Y426750D02*
X804000D01*
X782000Y441250D02*
X804000D01*
Y426750D02*
Y441250D01*
X782000Y426750D02*
Y441250D01*
X836000Y435500D02*
Y457500D01*
X821500Y435500D02*
Y457500D01*
X836000D01*
X821500Y435500D02*
X836000D01*
X657000Y390250D02*
Y403750D01*
X635000Y390250D02*
Y403750D01*
Y390250D02*
X657000D01*
X635000Y403750D02*
X657000D01*
X672250Y419000D02*
X704250D01*
X672250Y392000D02*
Y419000D01*
X704250Y392000D02*
Y419000D01*
X672250Y392000D02*
X704250D01*
X657000Y407000D02*
Y420500D01*
X635000Y407000D02*
Y420500D01*
Y407000D02*
X657000D01*
X635000Y420500D02*
X657000D01*
X768750Y294750D02*
X790750D01*
X768750Y281250D02*
X790750D01*
X768750D02*
Y294750D01*
X790750Y281250D02*
Y294750D01*
X677500Y277250D02*
Y299250D01*
X664000Y277250D02*
Y299250D01*
X677500D01*
X664000Y277250D02*
X677500D01*
X196350Y319600D02*
X202650D01*
X196350Y322900D02*
X202650D01*
Y319600D02*
Y322900D01*
X196350Y319600D02*
Y322900D01*
X213100Y319600D02*
X219400D01*
X213100Y322900D02*
X219400D01*
Y319600D02*
Y322900D01*
X213100Y319600D02*
Y322900D01*
X824000Y-65250D02*
Y-50750D01*
X802000Y-65250D02*
Y-50750D01*
Y-65250D02*
X824000D01*
X802000Y-50750D02*
X824000D01*
X19750Y312200D02*
X149250D01*
X19750Y261400D02*
X149250D01*
X19750D02*
Y312200D01*
X149250Y261400D02*
Y312200D01*
X18850Y315700D02*
Y339800D01*
Y315700D02*
X150950D01*
Y339800D01*
X18850D02*
X150950D01*
X741850Y-8299D02*
X845950D01*
Y-33698D02*
Y-8299D01*
X741850Y-33698D02*
X845950D01*
X741850D02*
Y-8299D01*
X811250Y-1250D02*
X833250D01*
X811250Y12250D02*
X833250D01*
Y-1250D02*
Y12250D01*
X811250Y-1250D02*
Y12250D01*
X599000Y147250D02*
X621000D01*
X599000Y161750D02*
X621000D01*
Y147250D02*
Y161750D01*
X599000Y147250D02*
Y161750D01*
X798750Y143500D02*
Y165500D01*
X812250Y143500D02*
Y165500D01*
X798750Y143500D02*
X812250D01*
X798750Y165500D02*
X812250D01*
X175500Y-135250D02*
Y-113250D01*
X189000Y-135250D02*
Y-113250D01*
X175500Y-135250D02*
X189000D01*
X175500Y-113250D02*
X189000D01*
X206250Y-39750D02*
X336250D01*
X206250Y-269750D02*
X336250D01*
X206250D02*
Y-39750D01*
X336250Y-269750D02*
Y-39750D01*
X393000Y227250D02*
X407500D01*
X393000Y205250D02*
X407500D01*
Y227250D01*
X393000Y205250D02*
Y227250D01*
X491500Y421000D02*
Y443000D01*
X505000Y421000D02*
Y443000D01*
X491500Y421000D02*
X505000D01*
X491500Y443000D02*
X505000D01*
X453000Y197250D02*
X593000D01*
X453000Y337250D02*
X593000D01*
Y197250D02*
Y337250D01*
X453000Y197250D02*
Y337250D01*
X367000Y360250D02*
X389000D01*
X367000Y373750D02*
X389000D01*
Y360250D02*
Y373750D01*
X367000Y360250D02*
Y373750D01*
X333500Y360500D02*
X355500D01*
X333500Y374000D02*
X355500D01*
Y360500D02*
Y374000D01*
X333500Y360500D02*
Y374000D01*
X417250Y359000D02*
Y381000D01*
X431750Y359000D02*
Y381000D01*
X417250Y359000D02*
X431750D01*
X417250Y381000D02*
X431750D01*
X428000Y425250D02*
Y439750D01*
X450000Y425250D02*
Y439750D01*
X428000D02*
X450000D01*
X428000Y425250D02*
X450000D01*
X829000Y-101000D02*
Y-83500D01*
X798500Y-101000D02*
Y-83500D01*
X829000D01*
X798500Y-101000D02*
X829000D01*
X895750Y109500D02*
Y124000D01*
X917750Y109500D02*
Y124000D01*
X895750D02*
X917750D01*
X895750Y109500D02*
X917750D01*
X823500Y339500D02*
Y353000D01*
X801500Y339500D02*
Y353000D01*
Y339500D02*
X823500D01*
X801500Y353000D02*
X823500D01*
X106250Y95500D02*
Y116500D01*
X119750Y95500D02*
Y116500D01*
X106250Y95500D02*
X119750D01*
X106250Y116500D02*
X119750D01*
X298250Y233750D02*
X358250D01*
X298250Y173750D02*
X358250D01*
Y233750D01*
X298250Y173750D02*
Y233750D01*
X801500Y321000D02*
X823500D01*
X801500Y334500D02*
X823500D01*
Y321000D02*
Y334500D01*
X801500Y321000D02*
Y334500D01*
X801500Y302750D02*
Y316250D01*
X823500Y302750D02*
Y316250D01*
X801500D02*
X823500D01*
X801500Y302750D02*
X823500D01*
X801500Y294750D02*
X823500D01*
X801500Y281250D02*
X823500D01*
X801500D02*
Y294750D01*
X823500Y281250D02*
Y294750D01*
X413750Y340000D02*
Y361000D01*
X400250Y340000D02*
Y361000D01*
X413750D01*
X400250Y340000D02*
X413750D01*
X110500Y183250D02*
Y205250D01*
X125000Y183250D02*
Y205250D01*
X110500Y183250D02*
X125000D01*
X110500Y205250D02*
X125000D01*
X946250Y96000D02*
Y118000D01*
X931750Y96000D02*
Y118000D01*
X946250D01*
X931750Y96000D02*
X946250D01*
X61750Y44250D02*
Y55250D01*
X55750Y44250D02*
Y55250D01*
X61750D01*
X55750Y44250D02*
X61750D01*
Y62750D02*
Y73750D01*
X55750Y62750D02*
Y73750D01*
X61750D01*
X55750Y62750D02*
X61750D01*
X836000Y-115250D02*
Y-93250D01*
X849500Y-115250D02*
Y-93250D01*
X836000Y-115250D02*
X849500D01*
X836000Y-93250D02*
X849500D01*
X768000Y-123750D02*
X848500D01*
X768000Y-181450D02*
Y-123750D01*
X848500Y-181450D02*
Y-123750D01*
X768000Y-181450D02*
X848500D01*
X776500Y-103000D02*
Y-81000D01*
X790000Y-103000D02*
Y-81000D01*
X776500Y-103000D02*
X790000D01*
X776500Y-81000D02*
X790000D01*
X898750Y46000D02*
X920750D01*
X898750Y31500D02*
X920750D01*
X898750D02*
Y46000D01*
X920750Y31500D02*
Y46000D01*
X789750Y-68500D02*
Y-46500D01*
X776250Y-68500D02*
Y-46500D01*
X789750D01*
X776250Y-68500D02*
X789750D01*
X864250Y133750D02*
Y155750D01*
X877750Y133750D02*
Y155750D01*
X864250Y133750D02*
X877750D01*
X864250Y155750D02*
X877750D01*
X736250Y69500D02*
X758250D01*
X736250Y83000D02*
X758250D01*
Y69500D02*
Y83000D01*
X736250Y69500D02*
Y83000D01*
X131500Y183250D02*
Y205250D01*
X146000Y183250D02*
Y205250D01*
X131500Y183250D02*
X146000D01*
X131500Y205250D02*
X146000D01*
X191750Y307000D02*
X222750D01*
X191750Y276000D02*
X222750D01*
X191750D02*
Y307000D01*
X222750Y276000D02*
Y307000D01*
X400500Y290750D02*
X411500D01*
X400500Y284750D02*
X411500D01*
X400500D02*
Y290750D01*
X411500Y284750D02*
Y290750D01*
X607000Y346500D02*
X629000D01*
X607000Y332000D02*
X629000D01*
X607000D02*
Y346500D01*
X629000Y332000D02*
Y346500D01*
X924750Y129000D02*
X946750D01*
X924750Y142500D02*
X946750D01*
Y129000D02*
Y142500D01*
X924750Y129000D02*
Y142500D01*
X316250Y270500D02*
X338250D01*
X316250Y256000D02*
X338250D01*
X316250D02*
Y270500D01*
X338250Y256000D02*
Y270500D01*
X543201Y-1696D02*
X699401D01*
X543200Y23196D02*
X699400D01*
Y23200D02*
X699401Y-1696D01*
X543200Y23200D02*
X543201Y-1696D01*
X888250Y128750D02*
X910250D01*
X888250Y142250D02*
X910250D01*
Y128750D02*
Y142250D01*
X888250Y128750D02*
Y142250D01*
X785000Y446500D02*
X807000D01*
X785000Y461000D02*
X807000D01*
Y446500D02*
Y461000D01*
X785000Y446500D02*
Y461000D01*
X357250Y343500D02*
X368250D01*
X357250Y337500D02*
X368250D01*
X357250D02*
Y343500D01*
X368250Y337500D02*
Y343500D01*
X736250Y66500D02*
X758250D01*
X736250Y53000D02*
X758250D01*
X736250D02*
Y66500D01*
X758250Y53000D02*
Y66500D01*
X848000Y-82250D02*
Y-60250D01*
X834500Y-82250D02*
Y-60250D01*
X848000D01*
X834500Y-82250D02*
X848000D01*
X66000Y39500D02*
Y77500D01*
Y39500D02*
X146000D01*
Y77500D01*
X66000D02*
X146000D01*
X394500Y291250D02*
Y329250D01*
X314500D02*
X394500D01*
X314500Y291250D02*
Y329250D01*
Y291250D02*
X394500D01*
X844750Y11250D02*
X866750D01*
X844750Y-3250D02*
X866750D01*
X844750D02*
Y11250D01*
X866750Y-3250D02*
Y11250D01*
X182900Y291100D02*
Y297400D01*
X179600Y291100D02*
Y297400D01*
X182900D01*
X179600Y291100D02*
X182900D01*
X203750Y222000D02*
Y244000D01*
X190250Y222000D02*
Y244000D01*
X203750D01*
X190250Y222000D02*
X203750D01*
X216750Y226750D02*
Y248750D01*
X230250Y226750D02*
Y248750D01*
X216750Y226750D02*
X230250D01*
X216750Y248750D02*
X230250D01*
X166000Y249500D02*
Y271500D01*
X179500Y249500D02*
Y271500D01*
X166000Y249500D02*
X179500D01*
X166000Y271500D02*
X179500D01*
X904250Y88250D02*
X926250D01*
X904250Y102750D02*
X926250D01*
Y88250D02*
Y102750D01*
X904250Y88250D02*
Y102750D01*
X409250Y186250D02*
X421750D01*
Y166250D02*
Y186250D01*
X409250Y166250D02*
X421750D01*
X409250D02*
Y186250D01*
X599000Y166250D02*
Y180750D01*
X621000Y166250D02*
Y180750D01*
X599000D02*
X621000D01*
X599000Y166250D02*
X621000D01*
X599750Y350500D02*
Y365000D01*
X621750Y350500D02*
Y365000D01*
X599750D02*
X621750D01*
X599750Y350500D02*
X621750D01*
X558500Y124952D02*
X662600D01*
Y99552D02*
Y124952D01*
X558500Y99552D02*
X662600D01*
X558500D02*
Y124952D01*
X325250Y378000D02*
Y438000D01*
X385250Y378000D02*
Y438000D01*
X325250D02*
X385250D01*
X325250Y378000D02*
X385250D01*
X391550Y65200D02*
Y89300D01*
Y65200D02*
X549050D01*
Y89300D01*
X391550D02*
X549050D01*
X556250Y68700D02*
Y92800D01*
Y68700D02*
X713750D01*
Y92800D01*
X556250D02*
X713750D01*
X391650Y92450D02*
Y116550D01*
Y92450D02*
X549150D01*
Y116550D01*
X391650D02*
X549150D01*
X177700Y45000D02*
X201800D01*
Y202500D01*
X177700D02*
X201800D01*
X177700Y45000D02*
Y202500D01*
X324500Y11250D02*
Y25750D01*
X302500Y11250D02*
Y25750D01*
Y11250D02*
X324500D01*
X302500Y25750D02*
X324500D01*
X272500Y108250D02*
X332500D01*
X272500Y48250D02*
X332500D01*
Y108250D01*
X272500Y48250D02*
Y108250D01*
X468750Y154000D02*
Y168500D01*
X446750Y154000D02*
Y168500D01*
Y154000D02*
X468750D01*
X446750Y168500D02*
X468750D01*
X214750Y335500D02*
Y349000D01*
X236750Y335500D02*
Y349000D01*
X214750D02*
X236750D01*
X214750Y335500D02*
X236750D01*
X214750Y353000D02*
Y366500D01*
X236750Y353000D02*
Y366500D01*
X214750D02*
X236750D01*
X214750Y353000D02*
X236750D01*
X166500Y334250D02*
X180000D01*
X166500Y312250D02*
X180000D01*
Y334250D01*
X166500Y312250D02*
Y334250D01*
X867250Y32250D02*
Y102250D01*
X797250Y32250D02*
Y102250D01*
Y32250D02*
X867250D01*
X797250Y102250D02*
X867250D01*
X881251Y5000D02*
Y19500D01*
X903251Y5000D02*
Y19500D01*
X881251D02*
X903251D01*
X881251Y5000D02*
X903251D01*
X881750Y500D02*
X903750D01*
X881750Y-13000D02*
X903750D01*
X881750D02*
Y500D01*
X903750Y-13000D02*
Y500D01*
X928500Y250D02*
Y22250D01*
X915000Y250D02*
Y22250D01*
X928500D01*
X915000Y250D02*
X928500D01*
X801000Y122500D02*
Y137000D01*
X823000Y122500D02*
Y137000D01*
X801000D02*
X823000D01*
X801000Y122500D02*
X823000D01*
X771750Y118250D02*
X793750D01*
X771750Y104750D02*
X793750D01*
X771750D02*
Y118250D01*
X793750Y104750D02*
Y118250D01*
X722000Y20000D02*
X744000D01*
X722000Y33500D02*
X744000D01*
Y20000D02*
Y33500D01*
X722000Y20000D02*
Y33500D01*
X832500Y141000D02*
Y163000D01*
X846000Y141000D02*
Y163000D01*
X832500Y141000D02*
X846000D01*
X832500Y163000D02*
X846000D01*
X740500Y141500D02*
X762500D01*
X740500Y155000D02*
X762500D01*
Y141500D02*
Y155000D01*
X740500Y141500D02*
Y155000D01*
X760500Y96750D02*
Y128750D01*
X733500D02*
X760500D01*
X733500Y96750D02*
X760500D01*
X733500D02*
Y128750D01*
X764500Y138000D02*
X786500D01*
X764500Y124500D02*
X786500D01*
X764500D02*
Y138000D01*
X786500Y124500D02*
Y138000D01*
X790750Y13250D02*
Y27750D01*
X768750Y13250D02*
Y27750D01*
Y13250D02*
X790750D01*
X768750Y27750D02*
X790750D01*
X336150Y481700D02*
Y505800D01*
Y481700D02*
X493650D01*
Y505800D01*
X336150D02*
X493650D01*
X724100Y465575D02*
Y489675D01*
X566600D02*
X724100D01*
X566600Y465575D02*
Y489675D01*
Y465575D02*
X724100D01*
Y435200D02*
Y459300D01*
X566600D02*
X724100D01*
X566600Y435200D02*
Y459300D01*
Y435200D02*
X724100D01*
X273800Y186250D02*
Y441250D01*
X249700Y186250D02*
Y441250D01*
X273800D01*
X249700Y186250D02*
X273800D01*
X666349Y38550D02*
Y53950D01*
X714650Y33550D02*
X717151Y38550D01*
X694251Y33550D02*
X714650D01*
X691751Y38550D02*
X694251Y33550D01*
X689250D02*
X691751Y38550D01*
X668851Y33550D02*
X689250D01*
X666351Y38550D02*
X668851Y33550D01*
X666351Y53950D02*
X668851Y58950D01*
X689250D01*
X691751Y53950D01*
X694251Y58950D01*
X714650D01*
X717151Y53950D01*
Y38550D02*
Y53950D01*
X691200Y155450D02*
X715300D01*
X691200Y366250D02*
X715304D01*
X691200Y155450D02*
Y366250D01*
X715300Y155450D02*
Y366250D01*
X259250Y46000D02*
Y60500D01*
X237250Y46000D02*
Y60500D01*
Y46000D02*
X259250D01*
X237250Y60500D02*
X259250D01*
X124450Y496550D02*
X148550D01*
X124450Y364450D02*
Y496550D01*
Y364450D02*
X148550D01*
Y496550D01*
X154300Y490450D02*
X203800D01*
X154300Y383750D02*
Y490450D01*
Y383750D02*
X203800D01*
Y490450D01*
D85*
X-44000Y100000D02*
X96000D01*
X-44000Y198000D02*
X96000D01*
Y100000D02*
Y198000D01*
X-44000Y100000D02*
Y198000D01*
M02*
